<svg version="1.1" xmlns="http://www.w3.org/2000/svg" xmlns:xlink="http://www.w3.org/1999/xlink" preserveAspectRatio="xMidYMid meet" viewBox="0 0 100 97.52" width="100" height="97.52"><path d="M50 0C22.38 0 0 22.39 0 50C0 72.09 14.33 90.83 34.19 97.43C36.69 97.9 37.6 96.36 37.6 95.03C37.6 93.84 37.56 90.7 37.54 86.53C23.63 89.55 20.7 79.82 20.7 79.82C18.42 74.05 15.14 72.51 15.14 72.51C10.61 69.41 15.49 69.47 15.49 69.47C20.51 69.82 23.15 74.62 23.15 74.62C27.6 82.27 34.85 80.06 37.71 78.78C38.16 75.55 39.45 73.34 40.87 72.09C29.77 70.84 18.1 66.54 18.1 47.39C18.1 41.93 20.04 37.47 23.25 33.97C22.68 32.71 21 27.62 23.68 20.74C23.68 20.74 27.87 19.4 37.43 25.86C41.43 24.75 45.68 24.2 49.93 24.17C54.18 24.2 58.43 24.75 62.43 25.86C71.93 19.4 76.12 20.74 76.12 20.74C78.81 27.62 77.12 32.71 76.62 33.97C79.81 37.47 81.75 41.93 81.75 47.39C81.75 66.59 70.06 70.82 58.93 72.05C60.68 73.55 62.31 76.62 62.31 81.3C62.31 87.99 62.25 93.37 62.25 94.99C62.25 96.3 63.12 97.87 65.68 97.37C85.69 90.81 100 72.06 100 50C100 22.39 77.61 0 50 0" id="ba8WHLNFz"></path></svg>
