<svg xmlns="http://www.w3.org/2000/svg" xmlns:xlink="http://www.w3.org/1999/xlink" width="49.25" height="49.25" viewBox="0 0 49.25 49.25"><path d="M27.31.14l1.31.18 1.29.25 1.26.31 1.24.37 1.21.44 1.18.5 1.14.56 1.12.61 1.07.67 1.04.72 1 .77.96.82.91.87.87.91.82.96.77 1 .72 1.04.67 1.07.61 1.12.56 1.14.5 1.18.44 1.21.37 1.24.31 1.26.25 1.29.18 1.31.11 1.33.03 1.35-.03 1.35-.11 1.34-.18 1.31-.25 1.28-.31 1.27-.37 1.24-.44 1.2-.5 1.18-.56 1.15-.61 1.11-.67 1.08-.72 1.03-.77 1-.82.96-.87.91-.91.87-.96.82-1 .77-1.04.73-1.07.66-1.12.62-1.14.55-1.18.5-1.21.44-1.24.38-1.26.31-1.29.24-1.31.18-1.33.11-1.35.04-1.35-.04-1.34-.11-1.31-.18-1.29-.24-1.26-.31-1.24-.38-1.21-.44-1.17-.5-1.15-.55-1.11-.62-1.08-.66-1.04-.73-.99-.77-.96-.82-.92-.87-.86-.91-.82-.96-.78-1-.72-1.03-.67-1.08-.61-1.11-.56-1.15-.49-1.18-.44-1.2-.38-1.24-.31-1.27-.25-1.28-.17-1.31-.11-1.34L0 24.62l.04-1.35.11-1.33.17-1.31.25-1.29.31-1.26.38-1.24.44-1.21.49-1.18.56-1.14.61-1.12.67-1.07.72-1.04.78-1 .82-.96.86-.91.92-.87.96-.82.99-.77 1.04-.72 1.08-.67 1.11-.61 1.15-.56 1.17-.5 1.21-.44 1.24-.37 1.26-.31 1.29-.25 1.31-.18 1.34-.11L24.63 0l1.35.03 1.33.11zm-1.96 9.29l-.69.16-.62.22-.56.27-.5.31-.45.36-.39.38-.34.42-.29.44-.25.45-.2.47-.17.48-.12.47-.1.47-.06.47-.04.44-.01.43v3.48h-3.01v5.37h3.01v15.21h6.32V24.52h4.26l.56-5.37h-4.82v-3.16l.01-.19.02-.17.03-.16.05-.14.05-.13.07-.12.07-.1.08-.09.08-.08.09-.06.1-.06.1-.05.1-.04.1-.03.1-.02.1-.01.1-.01H31.62V9.31l-4.68-.02-.83.04-.76.1z" id="a"/></svg>
