<svg fill="#D22856" xmlns="http://www.w3.org/2000/svg" width="59.95" height="40" viewBox="0 0 59.95 40"><path d="M47.12.03l.41.04.4.05.38.07.38.08.35.09.35.1.33.12.32.12.31.14.3.14.29.16.27.16.26.17.25.18.24.18.23.19.21.2.21.2.2.21.18.21.18.21.16.21.16.22.15.22.13.22.13.22.12.22.11.22.1.22.09.21.08.21.08.21.07.21.06.2.05.2.05.19.03.18.03.18.09.34.19.81.37 1.51.43 1.79 1 4.1.35 1.45.35 1.45.17.72.34 1.41.33 1.35.16.65.3 1.23.14.58.13.55.12.51.12.48.1.44.1.4.09.35.07.31.06.26.05.2.04.15.02.09.01.04.02.08.01.08.01.08.01.07V28.3l-.01.07-.01.06-.02.07-.01.07-.02.06-.02.06-.03.06-.03.06-.03.06-.03.05-.04.05-.04.05-.04.05-.04.05-.04.04-.05.04-.05.04-.05.04-.05.04-.05.03-.06.03-.05.03-.06.03-.06.02-.06.02-.06.02-.06.02-.07.01-.06.01-.07.01-.06.01h-.13l-.02.01h-3.96l-.07.44-.08.43-.09.43-.11.42-.12.41-.14.41-.15.4-.17.4-.18.39-.2.38-.2.37-.22.36-.23.36-.25.34-.25.34-.27.33-.28.31-.29.31-.3.3-.31.29-.32.27-.33.27-.34.25-.35.24-.36.23-.36.21-.38.21-.38.19-.39.17-.4.17-.4.15-.41.13-.42.12-.42.1-.43.09-.43.08-.44.06-.45.04-.45.02-.45.01-.45-.01-.45-.02-.45-.04-.44-.06-.43-.08-.43-.09-.42-.1-.42-.12-.41-.13-.4-.15-.4-.17-.39-.17-.38-.19-.38-.21-.36-.21-.36-.23-.35-.24-.34-.25-.33-.27-.32-.27-.31-.29-.3-.3-.29-.31-.28-.31-.26-.33-.26-.34-.24-.34-.24-.36-.22-.36-.2-.37-.2-.38-.18-.39-.16-.4-.16-.4-.14-.41-.12-.41-.11-.42-.09-.43-.08-.43-.07-.44h-1.79l-.07.44-.08.43-.09.43-.11.42-.12.41-.14.41-.15.4-.17.4-.18.39-.2.38-.2.37-.22.36-.23.36-.25.34-.25.34-.27.33-.28.31-.29.31-.3.3-.31.29-.32.27-.33.27-.34.25-.35.24-.36.23-.36.21-.38.21-.38.19-.39.17-.4.17-.4.15-.41.13-.42.12-.42.1-.43.09-.43.08-.44.06-.45.04-.45.02-.45.01-.45-.01-.45-.02-.45-.04-.43-.06-.44-.08-.43-.09-.42-.1-.42-.12-.41-.13-.4-.15-.4-.17-.39-.17-.38-.19-.38-.21-.36-.21-.36-.23-.35-.24-.34-.25-.33-.27-.32-.27-.31-.29-.3-.3-.29-.31-.28-.31-.26-.33-.26-.34-.24-.34-.24-.36-.22-.36-.2-.37-.2-.38-.18-.39-.16-.4-.16-.4-.14-.41-.12-.41-.11-.42-.09-.43-.08-.43-.07-.44H1.47l-.01-.01h-.13l-.06-.01-.07-.01-.06-.01-.07-.01-.06-.02-.06-.02-.06-.02-.06-.02-.06-.03-.05-.03-.06-.03-.05-.03-.05-.04-.05-.04-.05-.04-.05-.04-.04-.04-.04-.05-.04-.05-.04-.05-.04-.05-.03-.05-.03-.06-.03-.06-.03-.06-.02-.06-.02-.06-.01-.07-.02-.07-.01-.06L0 28.3V28.07L.01 28l.01-.08.01-.08.02-.08.01-.04.03-.12.04-.19.06-.25.08-.32.09-.37.11-.44.11-.48.27-1.11.31-1.26.34-1.39.17-.74.19-.75.37-1.55.39-1.58.57-2.36.37-1.53.35-1.44.61-2.52.66-2.73.03-.18.04-.18.04-.19.05-.2.06-.2.07-.21.08-.21.08-.21.09-.21.1-.22.11-.22.12-.22.13-.22.14-.22.14-.22.16-.22.16-.21.18-.21.18-.21.2-.21.21-.2.21-.2.23-.19.24-.18.25-.18.26-.17.28-.16.28-.16.3-.14.31-.14.32-.12.33-.12.35-.1.36-.09.37-.08.38-.07.4-.05.41-.04.43-.02.44-.01h.12l.06.01.06.01.06.01.05.01.06.02.06.02.05.02.06.02.05.02.05.03.05.02.05.03.05.03.04.04.05.03.04.04.05.04.04.04.04.04.04.04.03.04.04.05.03.04.03.05.03.05.03.05.02.05.03.06.02.05.02.06.01.05.02.06.01.06.01.05.01.06.01.06v.25l-.01.06-.01.06-.01.06-.01.05-.02.06-.01.06-.02.05-.02.05-.03.06-.02.05-.03.05-.03.05-.03.05-.03.04-.04.05-.03.04-.04.05-.04.04-.04.04-.05.03-.04.04-.05.04-.04.03-.05.03-.05.03-.05.03-.05.02-.05.03-.06.02-.05.02-.06.01-.06.02-.05.01-.06.01-.06.01-.06.01h-.12l-.36.01-.33.02-.33.03-.31.05-.29.05-.28.07-.27.07-.26.09-.24.09-.23.11-.21.11-.21.11-.19.12-.19.13-.17.13-.16.14-.15.14-.14.14-.13.14-.13.15-.11.15-.11.14-.09.15-.09.14-.08.15-.08.14-.06.14-.06.13-.06.13-.05.12-.04.12-.04.11-.03.11-.03.09-.02.09-.02.08-.01.07-.01.06-.01.05-.01.04-4.72 19.51h2.05l.06-.43.08-.44.1-.42.11-.42.12-.42.14-.41.15-.4.17-.4.18-.38.19-.38.21-.37.22-.37.23-.35.25-.35.25-.34.27-.32.28-.32.29-.31.3-.3.31-.28.32-.28.33-.26.34-.26.35-.24.36-.23.36-.21.38-.2.38-.19.39-.18.39-.16.41-.15.41-.14.42-.12.42-.1.43-.09.43-.07.44-.06.45-.04.44-.03.46-.01.45.01.45.03.44.04.44.06.44.07.43.09.42.1.42.12.41.14.4.15.4.16.39.18.38.19.37.2.37.21.36.23.35.24.34.26.33.26.32.28.31.28.3.3.29.31.28.32.26.32.26.34.24.35.23.35.22.37.21.37.2.38.18.38.16.4.16.4.13.41.13.42.11.42.09.42.08.44.06.43h1.81l.06-.43.08-.44.09-.42.11-.42.13-.42.14-.41.15-.4.17-.4.18-.38.19-.38.21-.37.22-.37.23-.35.24-.35.26-.34.27-.32.27-.32.29-.31.3-.3.31-.28.33-.28.33-.26.34-.26.34-.24.36-.23.37-.21.37-.2.38-.19.39-.18.4-.16.4-.15.41-.14.42-.12.42-.1.43-.09.44-.07.44-.06.44-.04.45-.03.45-.01.46.01.45.03.44.04.44.06.43.07.43.09.42.1.42.12.41.14.41.15.39.16.39.18.38.19.38.2.36.21.36.23.35.24.34.26.33.26.32.28.31.28.3.3.29.31.28.32.27.32.25.34.25.35.23.35.22.37.21.37.19.38.18.38.17.4.15.4.14.41.12.42.11.42.1.42.08.44.06.43h2.05L51.84 7.08l-.01-.04v-.05l-.02-.06-.01-.07-.02-.08-.02-.09-.03-.09-.03-.11-.04-.11-.04-.12-.05-.12-.06-.13-.06-.13-.06-.14-.08-.14-.08-.15-.09-.14-.09-.15-.11-.14-.11-.15-.13-.15-.13-.14-.14-.14-.15-.14-.16-.14-.17-.13-.19-.13-.19-.12-.21-.11-.21-.11-.23-.11-.24-.09-.26-.09-.27-.07-.28-.07-.29-.05-.31-.05-.32-.03-.34-.02-.36-.01h-.12l-.06-.01-.06-.01-.06-.01-.05-.01-.06-.02-.06-.01-.05-.02-.05-.02-.06-.03-.05-.02-.05-.03-.05-.03-.05-.03-.04-.03-.05-.04-.04-.04-.05-.03-.04-.04-.04-.04-.03-.05-.04-.04-.04-.05-.03-.04-.03-.05-.03-.05-.03-.05-.02-.05-.03-.06-.02-.05-.02-.05-.01-.06-.02-.06-.01-.05-.01-.06-.01-.06-.01-.06v-.25l.01-.06.01-.06.01-.05.01-.06.02-.06.01-.05.02-.06.02-.05.03-.06.02-.05.03-.05.03-.05.03-.05.03-.04.04-.05.04-.04.03-.04.04-.04.04-.04.05-.04.04-.04.05-.03.04-.04.05-.03.05-.03.05-.02.05-.03.06-.02.05-.02.05-.02.06-.02.06-.02.05-.01.06-.01.06-.01.06-.01h.12l.44.01.43.02zm-7.84 19.78l-1.01.5-.94.62-.85.72-.76.83-.64.92-.53 1-.4 1.07-.27 1.12-.02.14-.02.13-.02.13-.02.14-.01.13-.01.14-.01.13-.01.14-.01.14v.55l.01.13.01.14.01.14.01.13.01.13.02.14.02.13.02.13.02.14.26 1.12.41 1.07.53 1 .64.92.76.83.85.73.93.61 1.02.5 1.08.37 1.14.23 1.19.08 1.19-.08 1.14-.23 1.09-.37 1.01-.5.94-.61.85-.73.75-.83.65-.92.53-1 .4-1.07.27-1.12.02-.14.02-.13.02-.13.01-.14.02-.13.01-.14.01-.13.01-.14.01-.13v-.55l-.01-.14-.01-.14-.01-.13-.01-.14-.02-.13-.01-.14-.02-.13-.02-.13-.02-.14-.27-1.12-.4-1.07-.53-1-.65-.92-.75-.83-.85-.72-.94-.62-1.01-.5-1.09-.37-1.14-.23-1.19-.08-1.19.08-1.14.23-1.08.37zm-24.35-.37l-1.09.37-1.01.5-.94.62-.85.72-.75.83-.65.92-.53 1-.4 1.07-.27 1.12-.02.14-.02.13-.02.13-.01.14-.02.13-.01.14-.01.13-.01.14-.01.14v.55l.01.13.01.14.01.14.01.13.02.13.01.14.02.13.02.13.02.14.27 1.12.4 1.07.53 1 .65.92.75.83.85.73.94.61 1.01.5 1.09.37 1.14.23 1.19.08 1.19-.08 1.14-.23 1.08-.37 1.02-.5.93-.61.85-.73.76-.83.64-.92.53-1 .4-1.07.27-1.12.02-.14.02-.13.02-.13.02-.14.01-.13.01-.14.01-.13.01-.14.01-.13v-.55l-.01-.14-.01-.14-.01-.13-.01-.14-.01-.13-.02-.14-.02-.13-.02-.13-.02-.14-.27-1.12-.4-1.07-.53-1-.64-.92-.76-.83-.85-.72-.94-.62-1.01-.5-1.08-.37-1.14-.23-1.19-.08-1.19.08-1.14.23z"/></svg>