<?xml version="1.0" encoding="UTF-8" standalone="no"?>
<!DOCTYPE svg PUBLIC "-//W3C//DTD SVG 1.1//EN" "http://www.w3.org/Graphics/SVG/1.1/DTD/svg11.dtd">
<svg version="1.1" xmlns="http://www.w3.org/2000/svg" xmlns:xlink="http://www.w3.org/1999/xlink" preserveAspectRatio="xMidYMid meet" viewBox="0 0 360 209.07" width="360" height="209.07"><defs><path d="M82.3 20.92C85.3 24.17 80.05 32.67 85.8 37.42C91.55 42.17 99.3 36.92 102.55 38.67C105.8 40.42 101.8 49.67 107.3 52.42C112.8 55.17 120.8 47.92 126.3 50.92C131.8 53.92 125.8 63.17 131.55 66.92C137.3 70.67 145.3 61.42 149.05 64.42C152.8 67.42 150.8 71.92 150.55 75.42C150.38 77.75 151.3 79.92 153.3 81.92C154.46 79.42 155.46 77.25 156.3 75.42C152.05 71.42 157.05 62.92 151.3 58.92C145.55 54.92 139.55 63.67 134.55 61.17C129.55 58.67 134.3 48.42 129.3 44.42C124.3 40.42 115.05 46.67 109.3 43.67C103.55 40.67 109.55 31.92 105.3 28.92C101.05 25.92 92.05 33.67 89.8 31.67C87.55 29.67 89.05 22.42 88.8 20.17C88.63 18.67 87.3 16.92 84.8 14.92C84.13 17.75 83.3 19.75 82.3 20.92Z" id="h7izzDbE1"></path><path d="M251.93 37C251.93 57.42 235.36 74 214.93 74C194.51 74 177.93 57.42 177.93 37C177.93 16.58 194.51 0 214.93 0C235.36 0 251.93 16.58 251.93 37Z" id="a2oGxcAzqR"></path><path d="M294.57 117.05C294.57 129.47 284.49 139.55 272.07 139.55C259.65 139.55 249.57 129.47 249.57 117.05C249.57 104.63 259.65 94.55 272.07 94.55C284.49 94.55 294.57 104.63 294.57 117.05Z" id="c36b6DZWMC"></path><path d="M111.56 189.07C111.56 200.1 102.59 209.07 91.56 209.07C80.52 209.07 71.56 200.1 71.56 189.07C71.56 178.03 80.52 169.07 91.56 169.07C102.59 169.07 111.56 178.03 111.56 189.07Z" id="awbSGQ6R3"></path><path d="M229.59 170.1C229.59 180.57 221.3 189.07 211.09 189.07C200.88 189.07 192.59 180.57 192.59 170.1C192.59 159.63 200.88 151.13 211.09 151.13C221.3 151.13 229.59 159.63 229.59 170.1Z" id="avCtUjzWo"></path><path d="M117.56 43.42C117.56 50.77 111.73 56.74 104.56 56.74C97.38 56.74 91.56 50.77 91.56 43.42C91.56 36.06 97.38 30.09 104.56 30.09C111.73 30.09 117.56 36.06 117.56 43.42Z" id="c2NLBocq8B"></path><path d="M172.83 124.39C172.83 142.16 158.72 156.58 141.33 156.58C123.95 156.58 109.83 142.16 109.83 124.39C109.83 106.62 123.95 92.19 141.33 92.19C158.72 92.19 172.83 106.62 172.83 124.39Z" id="a7SLLv4ff"></path><path d="M63.45 60.11L103.14 73.83L101.14 79.6L61.45 65.87L63.45 60.11Z" id="aawnJ6InrL"></path><path d="M331.01 109.96L360 110.05L359.99 117.05L331 116.96L331.01 109.96Z" id="c2Ic670vcA"></path><path d="M331.01 131.3L351.36 139.14L349.22 144.74L328.86 136.9L331.01 131.3Z" id="a4zC2ZNUnq"></path><path d="M262.77 77.68L332.55 56.28L334.29 62.02L264.51 83.42L262.77 77.68Z" id="bwjdurc5u"></path><path d="M158.37 49.95L172.83 66.28L168.35 70.27L153.89 53.94L158.37 49.95Z" id="ahEbp2Uzm"></path><path d="M12 96.24L33.81 96.56L33.74 102.56L11.93 102.24L12 96.24Z" id="asgY8MUG8"></path><path d="M246.59 144.3L301.56 154.36L300.6 160.28L245.63 150.22L246.59 144.3Z" id="a3Evn1zyOH"></path><path d="M0 131.05L28.17 124.39L29.61 130.22L1.44 136.88L0 131.05Z" id="c3mZ1Ul4F"></path><path d="M114.21 172.47L157.28 148.79L160.18 154.13L117.11 177.81L114.21 172.47Z" id="e39ZyG5WX4"></path><path d="" id="c3muP9xQL"></path></defs><g><g><g><g><use xlink:href="#h7izzDbE1" opacity="1" fill="#f23939" fill-opacity="1"></use><g><use xlink:href="#h7izzDbE1" opacity="1" fill-opacity="0" stroke="#000000" stroke-width="0" stroke-opacity="1"></use></g></g><g><use xlink:href="#a2oGxcAzqR" opacity="1" fill="#f23939" fill-opacity="1"></use></g><g><use xlink:href="#c36b6DZWMC" opacity="1" fill="#08c27e" fill-opacity="1"></use></g><g><use xlink:href="#awbSGQ6R3" opacity="1" fill="#08c27e" fill-opacity="1"></use></g><g><use xlink:href="#avCtUjzWo" opacity="1" fill="#087cc2" fill-opacity="1"></use></g><g><use xlink:href="#c2NLBocq8B" opacity="1" fill="#087cc2" fill-opacity="1"></use></g><g><use xlink:href="#a7SLLv4ff" opacity="1" fill="#e7ca00" fill-opacity="1"></use></g><g><use xlink:href="#aawnJ6InrL" opacity="1" fill="#e7ca00" fill-opacity="1"></use></g><g><use xlink:href="#c2Ic670vcA" opacity="1" fill="#e7ca00" fill-opacity="1"></use></g><g><use xlink:href="#a4zC2ZNUnq" opacity="1" fill="#08c27e" fill-opacity="1"></use></g><g><use xlink:href="#bwjdurc5u" opacity="1" fill="#08c27e" fill-opacity="1"></use></g><g><use xlink:href="#ahEbp2Uzm" opacity="1" fill="#08c27e" fill-opacity="1"></use></g><g><use xlink:href="#asgY8MUG8" opacity="1" fill="#08c27e" fill-opacity="1"></use></g><g><use xlink:href="#a3Evn1zyOH" opacity="1" fill="#f23939" fill-opacity="1"></use></g><g><use xlink:href="#c3mZ1Ul4F" opacity="1" fill="#f23939" fill-opacity="1"></use></g><g><use xlink:href="#e39ZyG5WX4" opacity="1" fill="#e7ca00" fill-opacity="1"></use></g></g><g><g><use xlink:href="#c3muP9xQL" opacity="1" fill-opacity="0" stroke="#000000" stroke-width="1" stroke-opacity="1"></use></g></g></g></g></svg>