<?xml version="1.0" encoding="UTF-8" standalone="no"?>
<!DOCTYPE svg PUBLIC "-//W3C//DTD SVG 1.1//EN" "http://www.w3.org/Graphics/SVG/1.1/DTD/svg11.dtd">
<svg version="1.1" xmlns="http://www.w3.org/2000/svg" xmlns:xlink="http://www.w3.org/1999/xlink" preserveAspectRatio="xMidYMid meet" viewBox="0 0 540 340" width="540" height="340"><defs><path d="M173.18 87.66C177.24 89.85 172.24 101.41 179.12 104.85C186 108.29 196 99.23 202.87 102.98C209.74 106.73 202.24 118.29 209.43 122.97C216.62 127.66 226.62 116.11 231.31 119.86C235.99 123.6 233.5 129.22 233.19 133.6C232.98 136.51 234.13 139.23 236.61 141.73C238.06 138.6 239.31 135.89 240.37 133.6C235.05 128.6 241.3 117.98 234.13 112.98C226.94 107.98 219.43 118.92 213.18 115.79C206.93 112.67 212.87 99.85 206.62 94.85C200.36 89.85 188.81 97.66 181.62 93.91C174.43 90.16 181.93 79.23 176.62 75.48C171.3 71.73 160.06 81.42 157.25 78.92C154.44 76.42 156.31 67.35 156 64.54C155.79 62.66 154.12 60.47 151 57.97C150.16 61.51 149.12 64.01 147.87 65.48C151.62 69.54 145.06 80.17 152.25 86.1C159.44 92.04 169.12 85.47 173.18 87.66Z" id="c1yOaFe0zP"></path><path d="M173.18 87.66C177.24 89.85 172.24 101.41 179.12 104.85C186 108.29 196 99.23 202.87 102.98C209.74 106.73 202.24 118.29 209.43 122.97C216.62 127.66 226.62 116.11 231.31 119.86C235.99 123.6 233.5 129.22 233.19 133.6C232.98 136.51 234.13 139.23 236.61 141.73C238.06 138.6 239.31 135.89 240.37 133.6C235.05 128.6 241.3 117.98 234.13 112.98C226.94 107.98 219.43 118.92 213.18 115.79C206.93 112.67 212.87 99.85 206.62 94.85C200.36 89.85 188.81 97.66 181.62 93.91C174.43 90.16 181.93 79.23 176.62 75.48C171.3 71.73 160.06 81.42 157.25 78.92C154.44 76.42 156.31 67.35 156 64.54C155.79 62.66 154.12 60.47 151 57.97C150.16 61.51 149.12 64.01 147.87 65.48C151.62 69.54 145.06 80.17 152.25 86.1C159.44 92.04 169.12 85.47 173.18 87.66Z" id="dUZOFYF80"></path><path d="M173.18 87.66C177.24 89.85 172.24 101.41 179.12 104.85C186 108.29 196 99.23 202.87 102.98C209.74 106.73 202.24 118.29 209.43 122.97C216.62 127.66 226.62 116.11 231.31 119.86C235.99 123.6 233.5 129.22 233.19 133.6C232.98 136.51 234.13 139.23 236.61 141.73C238.06 138.6 239.31 135.89 240.37 133.6C235.05 128.6 241.3 117.98 234.13 112.98C226.94 107.98 219.43 118.92 213.18 115.79C206.93 112.67 212.87 99.85 206.62 94.85C200.36 89.85 188.81 97.66 181.62 93.91C174.43 90.16 181.93 79.23 176.62 75.48C171.3 71.73 160.06 81.42 157.25 78.92C154.44 76.42 156.31 67.35 156 64.54C155.79 62.66 154.12 60.47 151 57.97C150.16 61.51 149.12 64.01 147.87 65.48C151.62 69.54 145.06 80.17 152.25 86.1C159.44 92.04 169.12 85.47 173.18 87.66Z" id="bzOWGGYPX"></path><path d="M173.18 87.66C177.24 89.85 172.24 101.41 179.12 104.85C186 108.29 196 99.23 202.87 102.98C209.74 106.73 202.24 118.29 209.43 122.97C216.62 127.66 226.62 116.11 231.31 119.86C235.99 123.6 233.5 129.22 233.19 133.6C232.98 136.51 234.13 139.23 236.61 141.73C238.06 138.6 239.31 135.89 240.37 133.6C235.05 128.6 241.3 117.98 234.13 112.98C226.94 107.98 219.43 118.92 213.18 115.79C206.93 112.67 212.87 99.85 206.62 94.85C200.36 89.85 188.81 97.66 181.62 93.91C174.43 90.16 181.93 79.23 176.62 75.48C171.3 71.73 160.06 81.42 157.25 78.92C154.44 76.42 156.31 67.35 156 64.54C155.79 62.66 154.12 60.47 151 57.97C150.16 61.51 149.12 64.01 147.87 65.48C151.62 69.54 145.06 80.17 152.25 86.1C159.44 92.04 169.12 85.47 173.18 87.66Z" id="a2Gtzgw3y"></path><path d="M267.41 85.57C267.41 60.05 288.13 39.33 313.65 39.33C339.2 39.33 359.9 60.05 359.9 85.57C359.9 111.1 339.2 131.82 313.65 131.82C288.13 131.82 267.41 111.1 267.41 85.57Z" id="a34Eda9tKa"></path><path d="M267.41 85.57C267.41 60.05 288.13 39.33 313.65 39.33C339.2 39.33 359.9 60.05 359.9 85.57C359.9 111.1 339.2 131.82 313.65 131.82C288.13 131.82 267.41 111.1 267.41 85.57Z" id="gDczsBhX6"></path><path d="M356.95 185.64C356.95 170.11 369.56 157.52 385.08 157.52C400.61 157.52 413.21 170.11 413.21 185.64C413.21 201.16 400.61 213.77 385.08 213.77C369.56 213.77 356.95 201.16 356.95 185.64Z" id="d3y8z3Dtmv"></path><path d="M356.95 185.64C356.95 170.11 369.56 157.52 385.08 157.52C400.61 157.52 413.21 170.11 413.21 185.64C413.21 201.16 400.61 213.77 385.08 213.77C369.56 213.77 356.95 201.16 356.95 185.64Z" id="d4MUyrOme"></path><path d="M134.44 275.66C134.44 261.87 145.65 250.67 159.45 250.67C173.23 250.67 184.45 261.87 184.45 275.66C184.45 289.45 173.23 300.67 159.45 300.67C145.65 300.67 134.44 289.45 134.44 275.66Z" id="hYgheDJO"></path><path d="M134.44 275.66C134.44 261.87 145.65 250.67 159.45 250.67C173.23 250.67 184.45 261.87 184.45 275.66C184.45 289.45 173.23 300.67 159.45 300.67C145.65 300.67 134.44 289.45 134.44 275.66Z" id="agbreWS6t"></path><path d="M285.73 251.95C285.73 238.86 296.1 228.25 308.86 228.25C321.62 228.25 331.98 238.86 331.98 251.95C331.98 265.05 321.62 275.66 308.86 275.66C296.1 275.66 285.73 265.05 285.73 251.95Z" id="b2UA77MuYE"></path><path d="M285.73 251.95C285.73 238.86 296.1 228.25 308.86 228.25C321.62 228.25 331.98 238.86 331.98 251.95C331.98 265.05 321.62 275.66 308.86 275.66C296.1 275.66 285.73 265.05 285.73 251.95Z" id="a18WqPiBUn"></path><path d="M159.45 93.02C159.45 83.83 166.72 76.37 175.69 76.37C184.66 76.37 191.95 83.83 191.95 93.02C191.95 102.21 184.66 109.68 175.69 109.68C166.72 109.68 159.45 102.21 159.45 93.02Z" id="d3F75b2qZ"></path><path d="M159.45 93.02C159.45 83.83 166.72 76.37 175.69 76.37C184.66 76.37 191.95 83.83 191.95 93.02C191.95 102.21 184.66 109.68 175.69 109.68C166.72 109.68 159.45 102.21 159.45 93.02Z" id="a2IxPrE0kZ"></path><path d="M182.28 194.82C182.28 172.6 199.93 154.57 221.66 154.57C243.39 154.57 261.03 172.6 261.03 194.82C261.03 217.03 243.39 235.05 221.66 235.05C199.93 235.05 182.28 217.03 182.28 194.82Z" id="bgYE4CNfZ"></path><path d="M182.28 194.82C182.28 172.6 199.93 154.57 221.66 154.57C243.39 154.57 261.03 172.6 261.03 194.82C261.03 217.03 243.39 235.05 221.66 235.05C199.93 235.05 182.28 217.03 182.28 194.82Z" id="a1wBzstj6B"></path><path d="M171.42 138.83L121.81 121.66L124.3 114.47L173.92 131.61L171.42 138.83Z" id="atAk5fYj0"></path><path d="M171.42 138.83L121.81 121.66L124.3 114.47L173.92 131.61L171.42 138.83Z" id="f34wRCNLxe"></path><path d="M494.99 185.64L458.75 185.53L458.75 176.78L495 176.89L494.99 185.64Z" id="a1Uo4y4VF"></path><path d="M494.99 185.64L458.75 185.53L458.75 176.78L495 176.89L494.99 185.64Z" id="o29FrHJT0"></path><path d="M481.52 220.25L456.07 210.45L458.75 203.45L484.2 213.25L481.52 220.25Z" id="a7bQrtnjLH"></path><path d="M481.52 220.25L456.07 210.45L458.75 203.45L484.2 213.25L481.52 220.25Z" id="b40GX2bFOt"></path><path d="M462.85 116.86L375.64 143.6L373.46 136.43L460.68 109.68L462.85 116.86Z" id="d1WlOJecqt"></path><path d="M462.85 116.86L375.64 143.6L373.46 136.43L460.68 109.68L462.85 116.86Z" id="b1azLduQfB"></path><path d="M255.43 127.16L237.35 106.75L242.95 101.76L261.03 122.17L255.43 127.16Z" id="bD1ohTcBN"></path><path d="M255.43 127.16L237.35 106.75L242.95 101.76L261.03 122.17L255.43 127.16Z" id="byiyZHZ5"></path><path d="M87.16 167.52L59.9 167.12L59.99 159.62L87.25 160.02L87.16 167.52Z" id="a3Hs4lHFAB"></path><path d="M87.16 167.52L59.9 167.12L59.99 159.62L87.25 160.02L87.16 167.52Z" id="a50VuBFIRz"></path><path d="M420.75 239.67L352.03 227.11L353.23 219.7L421.94 232.28L420.75 239.67Z" id="a3LKt3t0j"></path><path d="M420.75 239.67L352.03 227.11L353.23 219.7L421.94 232.28L420.75 239.67Z" id="a2kRYRU7m"></path><path d="M82.01 202.1L46.8 210.43L45 203.14L80.21 194.82L82.01 202.1Z" id="e1pZ4RFiF7"></path><path d="M82.01 202.1L46.8 210.43L45 203.14L80.21 194.82L82.01 202.1Z" id="c2VLsa2Lj"></path><path d="M245.22 232L191.39 261.59L187.76 254.92L241.59 225.32L245.22 232Z" id="a2VTpkWanO"></path><path d="M245.22 232L191.39 261.59L187.76 254.92L241.59 225.32L245.22 232Z" id="b3XY3x4y07"></path><path d="M386.95 142.97L387.4 143.1L387.74 143.32L388.58 144.05L389.34 144.77L390.04 145.44L390.69 146.09L391.28 146.72L391.82 147.32L392.29 147.89L392.72 148.43L393.08 148.96L393.4 149.46L393.67 149.93L393.89 150.39L394.05 150.82L394.18 151.24L394.25 151.63L394.29 152.02L394.28 152.38L394.23 152.73L394.14 153.06L394.02 153.38L393.85 153.68L393.65 153.98L393.42 154.26L393.14 154.53L392.84 154.79L392.5 155.04L392.14 155.29L391.74 155.53L391.33 155.76L390.88 156L390.42 156.21L389.91 156.43L389.4 156.66L388.86 156.87L388.31 157.08L387.74 157.31L387.14 157.52L386.54 157.75L385.29 158.2L384.06 158.63L382.91 159.07L381.86 159.48L380.89 159.87L379.99 160.25L379.16 160.61L378.41 160.96L377.72 161.28L377.11 161.6L376.56 161.9L376.07 162.17L375.65 162.43L375.29 162.68L374.96 162.92L374.7 163.15L374.48 163.36L374.31 163.55L374.18 163.74L374.11 163.9L374.06 164.05L374.05 164.2L374.07 164.32L374.12 164.44L374.21 164.55L374.32 164.64L374.45 164.72L374.6 164.8L374.77 164.86L374.96 164.91L375.15 164.95L375.57 165L375.8 165.01L376.01 165.01L376.24 165L376.45 164.99L376.66 164.96L376.87 164.92L377.06 164.89L377.24 164.84L378.25 164.55L379.25 164.29L380.25 164.05L381.24 163.82L382.21 163.64L383.19 163.47L384.14 163.35L385.09 163.24L386.01 163.16L386.94 163.11L387.84 163.1L388.73 163.12L389.59 163.17L390.44 163.25L391.27 163.37L392.08 163.52L392.87 163.71L393.64 163.94L394.38 164.2L395.09 164.5L395.79 164.84L396.45 165.21L397.09 165.62L397.71 166.09L398.29 166.59L398.84 167.14L399.36 167.72L399.84 168.35L400.29 169.02L400.71 169.75L401.09 170.53L401.44 171.34L401.74 172.2L402.02 173.13L402.24 174.09L402.43 175.1L402.58 176.16L402.68 177.29L402.74 178.45L402.76 179.68L403.28 179.64L403.44 179.63L403.79 179.6L403.96 179.59L404.13 179.58L404.29 179.57L404.47 179.55L404.63 179.54L404.81 179.53L404.97 179.52L405.15 179.5L405.31 179.49L405.48 179.49L405.81 179.47L406.15 179.44L406.31 179.43L406.48 179.42L406.81 179.39L406.98 179.39L407.47 179.35L407.65 179.34L408.13 179.3L408.31 179.29L408.8 179.25L408.97 179.24L409.46 179.2L409.76 179.18L410.05 179.18L410.32 179.19L410.58 179.23L410.82 179.28L411.05 179.34L411.26 179.42L411.46 179.5L411.65 179.6L411.81 179.72L411.96 179.84L412.1 179.98L412.22 180.12L412.32 180.27L412.41 180.43L412.48 180.59L412.55 180.75L412.59 180.93L412.61 181.1L412.62 181.28L412.61 181.45L412.59 181.63L412.55 181.8L412.48 181.99L412.41 182.17L412.32 182.33L412.21 182.5L412.08 182.67L411.77 182.98L411.6 183.12L411.4 183.25L411.18 183.38L410.95 183.49L410.7 183.6L410.43 183.69L410.15 183.78L409.83 183.84L409.52 183.89L409.17 183.93L409.01 183.95L408.85 183.97L408.67 183.99L408.51 184.02L408.35 184.03L408.18 184.05L408.01 184.08L407.85 184.09L407.67 184.12L407.51 184.13L407.35 184.15L407.17 184.17L407.01 184.18L406.83 184.2L406.67 184.22L406.5 184.24L406.33 184.25L406.16 184.27L406 184.29L405.82 184.3L405.66 184.32L405.48 184.33L405.32 184.35L405.15 184.37L404.98 184.38L404.81 184.39L404.64 184.42L404.47 184.43L404.14 184.45L403.97 184.48L403.81 184.49L403.63 184.5L403.31 184.53L403.13 184.54L402.97 184.56L402.81 184.58L402.64 184.59L402.47 184.61L402.47 184.71L402.08 186.98L401.56 189.16L400.89 191.23L400.12 193.22L399.23 195.11L398.23 196.88L397.14 198.57L395.95 200.16L394.69 201.65L393.34 203.04L391.93 204.32L390.45 205.51L388.93 206.59L387.36 207.58L385.75 208.46L384.11 209.24L382.44 209.91L380.76 210.49L379.07 210.96L377.37 211.33L375.69 211.6L374.02 211.75L372.37 211.81L370.75 211.76L369.16 211.61L367.61 211.35L366.12 210.99L364.68 210.51L363.32 209.94L362.02 209.26L360.81 208.46L359.68 207.58L358.64 206.56L357.72 205.45L356.89 204.22L356.19 202.9L355.62 201.46L355.18 199.91L354.88 198.25L354.72 196.48L354.73 195.67L354.8 194.88L354.97 194.13L355.2 193.41L355.52 192.71L355.89 192.03L356.34 191.38L356.85 190.76L357.43 190.16L358.08 189.58L358.78 189.03L359.54 188.51L360.36 187.99L361.23 187.52L362.16 187.04L363.13 186.61L364.16 186.18L365.23 185.77L366.34 185.38L367.51 185.01L368.71 184.66L369.95 184.3L371.22 183.99L372.52 183.68L373.86 183.38L375.24 183.1L376.64 182.83L378.06 182.58L379.51 182.34L380.97 182.1L382.46 181.88L383.98 181.67L385.5 181.47L387.04 181.28L388.59 181.09L391.72 180.74L394.87 180.42L396.44 180.27L396.44 178.87L396.34 177.65L396.13 176.6L395.83 175.71L395.43 174.98L394.94 174.38L394.37 173.91L393.7 173.56L392.98 173.34L392.18 173.2L391.32 173.18L390.38 173.23L389.4 173.35L388.36 173.55L387.28 173.8L386.14 174.1L384.98 174.44L383.78 174.81L382.54 175.2L381.29 175.6L380 176.01L378.71 176.41L377.4 176.8L376.09 177.15L374.77 177.48L373.46 177.77L372.16 177.99L370.87 178.17L369.58 178.27L368.33 178.28L367.11 178.22L365.89 178.04L364.73 177.77L363.61 177.38L362.52 176.85L361.48 176.2L360.51 175.4L359.57 174.45L358.7 173.34L357.92 172.05L357.32 170.85L356.89 169.64L356.6 168.44L356.47 167.25L356.47 166.06L356.6 164.89L356.85 163.72L357.22 162.56L357.69 161.42L358.27 160.31L358.94 159.21L359.7 158.12L360.54 157.07L361.46 156.03L362.43 155.02L363.47 154.03L364.56 153.08L365.69 152.16L366.87 151.27L368.07 150.42L369.3 149.61L370.53 148.82L371.8 148.08L373.05 147.38L374.3 146.73L375.54 146.12L376.76 145.55L377.96 145.04L379.12 144.58L380.25 144.17L381.32 143.8L382.35 143.5L383.31 143.27L384.2 143.08L385.03 142.95L385.75 142.89L386.4 142.9L386.95 142.97ZM387.2 186.36L383.23 186.97L379.54 187.64L376.21 188.39L373.28 189.22L370.85 190.12L368.92 191.13L367.6 192.25L366.93 193.48L366.97 194.83L368.22 197.35L370.22 199.4L372.81 200.92L375.82 201.84L379.1 202.09L382.5 201.59L385.86 200.26L389.03 198.03L391.84 194.85L394.14 190.62L395.78 185.28L391.4 185.79L387.2 186.36Z" id="adb7juepd"></path><path d="M386.95 142.97L387.4 143.1L387.74 143.32L388.58 144.05L389.34 144.77L390.04 145.44L390.69 146.09L391.28 146.72L391.82 147.32L392.29 147.89L392.72 148.43L393.08 148.96L393.4 149.46L393.67 149.93L393.89 150.39L394.05 150.82L394.18 151.24L394.25 151.63L394.29 152.02L394.28 152.38L394.23 152.73L394.14 153.06L394.02 153.38L393.85 153.68L393.65 153.98L393.42 154.26L393.14 154.53L392.84 154.79L392.5 155.04L392.14 155.29L391.74 155.53L391.33 155.76L390.88 156L390.42 156.21L389.91 156.43L389.4 156.66L388.86 156.87L388.31 157.08L387.74 157.31L387.14 157.52L386.54 157.75L385.29 158.2L384.06 158.63L382.91 159.07L381.86 159.48L380.89 159.87L379.99 160.25L379.16 160.61L378.41 160.96L377.72 161.28L377.11 161.6L376.56 161.9L376.07 162.17L375.65 162.43L375.29 162.68L374.96 162.92L374.7 163.15L374.48 163.36L374.31 163.55L374.18 163.74L374.11 163.9L374.06 164.05L374.05 164.2L374.07 164.32L374.12 164.44L374.21 164.55L374.32 164.64L374.45 164.72L374.6 164.8L374.77 164.86L374.96 164.91L375.15 164.95L375.57 165L375.8 165.01L376.01 165.01L376.24 165L376.45 164.99L376.66 164.96L376.87 164.92L377.06 164.89L377.24 164.84L378.25 164.55L379.25 164.29L380.25 164.05L381.24 163.82L382.21 163.64L383.19 163.47L384.14 163.35L385.09 163.24L386.01 163.16L386.94 163.11L387.84 163.1L388.73 163.12L389.59 163.17L390.44 163.25L391.27 163.37L392.08 163.52L392.87 163.71L393.64 163.94L394.38 164.2L395.09 164.5L395.79 164.84L396.45 165.21L397.09 165.62L397.71 166.09L398.29 166.59L398.84 167.14L399.36 167.72L399.84 168.35L400.29 169.02L400.71 169.75L401.09 170.53L401.44 171.34L401.74 172.2L402.02 173.13L402.24 174.09L402.43 175.1L402.58 176.16L402.68 177.29L402.74 178.45L402.76 179.68L403.28 179.64L403.44 179.63L403.79 179.6L403.96 179.59L404.13 179.58L404.29 179.57L404.47 179.55L404.63 179.54L404.81 179.53L404.97 179.52L405.15 179.5L405.31 179.49L405.48 179.49L405.81 179.47L406.15 179.44L406.31 179.43L406.48 179.42L406.81 179.39L406.98 179.39L407.47 179.35L407.65 179.34L408.13 179.3L408.31 179.29L408.8 179.25L408.97 179.24L409.46 179.2L409.76 179.18L410.05 179.18L410.32 179.19L410.58 179.23L410.82 179.28L411.05 179.34L411.26 179.42L411.46 179.5L411.65 179.6L411.81 179.72L411.96 179.84L412.1 179.98L412.22 180.12L412.32 180.27L412.41 180.43L412.48 180.59L412.55 180.75L412.59 180.93L412.61 181.1L412.62 181.28L412.61 181.45L412.59 181.63L412.55 181.8L412.48 181.99L412.41 182.17L412.32 182.33L412.21 182.5L412.08 182.67L411.77 182.98L411.6 183.12L411.4 183.25L411.18 183.38L410.95 183.49L410.7 183.6L410.43 183.69L410.15 183.78L409.83 183.84L409.52 183.89L409.17 183.93L409.01 183.95L408.85 183.97L408.67 183.99L408.51 184.02L408.35 184.03L408.18 184.05L408.01 184.08L407.85 184.09L407.67 184.12L407.51 184.13L407.35 184.15L407.17 184.17L407.01 184.18L406.83 184.2L406.67 184.22L406.5 184.24L406.33 184.25L406.16 184.27L406 184.29L405.82 184.3L405.66 184.32L405.48 184.33L405.32 184.35L405.15 184.37L404.98 184.38L404.81 184.39L404.64 184.42L404.47 184.43L404.14 184.45L403.97 184.48L403.81 184.49L403.63 184.5L403.31 184.53L403.13 184.54L402.97 184.56L402.81 184.58L402.64 184.59L402.47 184.61L402.47 184.71L402.08 186.98L401.56 189.16L400.89 191.23L400.12 193.22L399.23 195.11L398.23 196.88L397.14 198.57L395.95 200.16L394.69 201.65L393.34 203.04L391.93 204.32L390.45 205.51L388.93 206.59L387.36 207.58L385.75 208.46L384.11 209.24L382.44 209.91L380.76 210.49L379.07 210.96L377.37 211.33L375.69 211.6L374.02 211.75L372.37 211.81L370.75 211.76L369.16 211.61L367.61 211.35L366.12 210.99L364.68 210.51L363.32 209.94L362.02 209.26L360.81 208.46L359.68 207.58L358.64 206.56L357.72 205.45L356.89 204.22L356.19 202.9L355.62 201.46L355.18 199.91L354.88 198.25L354.72 196.48L354.73 195.67L354.8 194.88L354.97 194.13L355.2 193.41L355.52 192.71L355.89 192.03L356.34 191.38L356.85 190.76L357.43 190.16L358.08 189.58L358.78 189.03L359.54 188.51L360.36 187.99L361.23 187.52L362.16 187.04L363.13 186.61L364.16 186.18L365.23 185.77L366.34 185.38L367.51 185.01L368.71 184.66L369.95 184.3L371.22 183.99L372.52 183.68L373.86 183.38L375.24 183.1L376.64 182.83L378.06 182.58L379.51 182.34L380.97 182.1L382.46 181.88L383.98 181.67L385.5 181.47L387.04 181.28L388.59 181.09L391.72 180.74L394.87 180.42L396.44 180.27L396.44 178.87L396.34 177.65L396.13 176.6L395.83 175.71L395.43 174.98L394.94 174.38L394.37 173.91L393.7 173.56L392.98 173.34L392.18 173.2L391.32 173.18L390.38 173.23L389.4 173.35L388.36 173.55L387.28 173.8L386.14 174.1L384.98 174.44L383.78 174.81L382.54 175.2L381.29 175.6L380 176.01L378.71 176.41L377.4 176.8L376.09 177.15L374.77 177.48L373.46 177.77L372.16 177.99L370.87 178.17L369.58 178.27L368.33 178.28L367.11 178.22L365.89 178.04L364.73 177.77L363.61 177.38L362.52 176.85L361.48 176.2L360.51 175.4L359.57 174.45L358.7 173.34L357.92 172.05L357.32 170.85L356.89 169.64L356.6 168.44L356.47 167.25L356.47 166.06L356.6 164.89L356.85 163.72L357.22 162.56L357.69 161.42L358.27 160.31L358.94 159.21L359.7 158.12L360.54 157.07L361.46 156.03L362.43 155.02L363.47 154.03L364.56 153.08L365.69 152.16L366.87 151.27L368.07 150.42L369.3 149.61L370.53 148.82L371.8 148.08L373.05 147.38L374.3 146.73L375.54 146.12L376.76 145.55L377.96 145.04L379.12 144.58L380.25 144.17L381.32 143.8L382.35 143.5L383.31 143.27L384.2 143.08L385.03 142.95L385.75 142.89L386.4 142.9L386.95 142.97ZM387.2 186.36L383.23 186.97L379.54 187.64L376.21 188.39L373.28 189.22L370.85 190.12L368.92 191.13L367.6 192.25L366.93 193.48L366.97 194.83L368.22 197.35L370.22 199.4L372.81 200.92L375.82 201.84L379.1 202.09L382.5 201.59L385.86 200.26L389.03 198.03L391.84 194.85L394.14 190.62L395.78 185.28L391.4 185.79L387.2 186.36Z" id="b136Nvmn4l"></path><path d="M353.79 151.72C348.49 154.43 345.9 167.27 342.62 173.29C341.49 175.36 337.97 176.01 337.38 175.98C336.16 175.91 336.12 165.21 337.59 155.12C339.37 142.72 358.87 149.13 353.79 151.72Z" id="l56lSsmoEj"></path><path d="M353.79 151.72C348.49 154.43 345.9 167.27 342.62 173.29C341.49 175.36 337.97 176.01 337.38 175.98C336.16 175.91 336.12 165.21 337.59 155.12C339.37 142.72 358.87 149.13 353.79 151.72Z" id="aL2qiyzuO"></path><path d="M192.52 130.32C195.55 128.82 199.79 127.47 202.62 133.3C206.84 141.99 193.8 147.88 187.82 141.37C185.33 138.6 186.47 133.24 192.52 130.32Z" id="clWn84HbQ"></path><path d="M192.52 130.32C195.55 128.82 199.79 127.47 202.62 133.3C206.84 141.99 193.8 147.88 187.82 141.37C185.33 138.6 186.47 133.24 192.52 130.32Z" id="a3xbblU5HL"></path><path d="M218.3 126.23C221.6 124.61 226.21 123.13 229.29 129.49C233.89 138.94 219.68 145.35 213.18 138.26C210.47 135.24 211.71 129.41 218.3 126.23Z" id="g1HgdDFBpH"></path><path d="M218.3 126.23C221.6 124.61 226.21 123.13 229.29 129.49C233.89 138.94 219.68 145.35 213.18 138.26C210.47 135.24 211.71 129.41 218.3 126.23Z" id="aaWSDQvwK"></path><path d="M151.69 169.66C146.61 174.48 143.43 187.01 143.33 198.95C143.83 201.95 144.42 204.86 145.12 207.46C145.72 210.38 136.37 213.38 130.9 209.28C129.02 207.88 127.53 193.73 127.53 174.58C127.53 158.83 129.62 147.99 131.5 147.49C145.82 143.59 148.11 149.91 145.02 161.73C143.73 166.65 142.93 171.36 142.53 175.88C145.52 167.55 149.8 160.73 154.66 157.72C167.89 149.41 178.93 153.31 176.84 169.86C173.26 199.45 172.97 203.46 176.14 201.15C180.12 198.35 182.71 203.36 179.03 205.86C164.9 215.39 153.67 213.29 157.25 186.51C159.84 167.05 155.56 165.95 151.69 169.66Z" id="bmumPnRoQ"></path><path d="M151.69 169.66C146.61 174.48 143.43 187.01 143.33 198.95C143.83 201.95 144.42 204.86 145.12 207.46C145.72 210.38 136.37 213.38 130.9 209.28C129.02 207.88 127.53 193.73 127.53 174.58C127.53 158.83 129.62 147.99 131.5 147.49C145.82 143.59 148.11 149.91 145.02 161.73C143.73 166.65 142.93 171.36 142.53 175.88C145.52 167.55 149.8 160.73 154.66 157.72C167.89 149.41 178.93 153.31 176.84 169.86C173.26 199.45 172.97 203.46 176.14 201.15C180.12 198.35 182.71 203.36 179.03 205.86C164.9 215.39 153.67 213.29 157.25 186.51C159.84 167.05 155.56 165.95 151.69 169.66Z" id="a11iR8NKB1"></path><path d="M214.82 153.66L216.26 153.93L217.62 154.33L218.93 154.86L220.17 155.51L221.33 156.31L222.41 157.25L223.4 158.32L224.28 159.53L224.83 160.5L225.31 161.5L225.67 162.53L225.96 163.61L226.16 164.71L226.27 165.84L226.3 167L226.25 168.17L226.11 169.36L225.9 170.58L225.61 171.79L225.25 173.01L224.81 174.24L224.31 175.48L223.73 176.7L223.08 177.93L222.37 179.15L221.6 180.35L220.77 181.54L219.87 182.72L218.92 183.87L217.91 184.99L216.84 186.09L215.73 187.17L214.56 188.19L213.34 189.19L212.08 190.14L210.77 191.06L209.42 191.92L208.02 192.73L206.58 193.5L205.1 194.2L203.6 194.83L203.54 194.86L203.49 194.87L203.4 194.91L203.14 195L203.08 195.01L202.98 195.05L202.95 195.06L202.89 195.07L202.84 195.1L202.79 195.11L202.75 195.12L202.7 195.13L203.03 195.96L203.39 196.76L203.77 197.52L204.17 198.26L204.59 198.95L205.04 199.61L205.52 200.25L206 200.84L206.52 201.39L207.04 201.89L207.59 202.36L208.15 202.79L208.73 203.16L209.32 203.5L209.93 203.79L210.56 204.02L211.19 204.21L211.83 204.35L212.49 204.44L213.16 204.47L213.84 204.45L214.52 204.36L215.22 204.22L215.92 204.02L216.62 203.77L217.33 203.45L218.06 203.06L218.77 202.61L219.5 202.1L220.22 201.52L220.95 200.86L221.67 200.15L222.38 199.35L222.73 198.98L223.06 198.65L223.38 198.35L223.71 198.08L224.01 197.85L224.31 197.63L224.6 197.46L224.87 197.31L225.14 197.2L225.39 197.11L225.62 197.05L225.85 197.02L226.05 197.01L226.24 197.03L226.41 197.1L226.56 197.17L226.7 197.27L226.81 197.41L226.9 197.56L226.97 197.75L227.02 197.95L227.05 198.17L227.05 198.43L227.02 198.71L226.97 199.01L226.9 199.32L226.8 199.67L226.67 200.04L226.51 200.42L226.32 200.82L226.11 201.25L225.86 201.7L225.57 202.16L225.21 202.71L224.8 203.25L224.37 203.77L223.9 204.27L223.41 204.76L222.88 205.22L222.33 205.67L221.76 206.1L221.16 206.51L220.53 206.9L219.88 207.28L219.21 207.63L218.52 207.96L217.81 208.28L217.08 208.56L216.33 208.84L215.57 209.09L214.79 209.33L213.99 209.54L213.19 209.73L212.37 209.9L211.54 210.05L210.71 210.18L209.85 210.29L208.99 210.38L208.13 210.44L207.27 210.49L206.39 210.5L205.52 210.5L204.64 210.49L203.77 210.44L202.88 210.38L202 210.29L200.76 210.11L199.55 209.89L198.38 209.61L197.23 209.26L196.11 208.88L195.03 208.41L193.99 207.91L192.97 207.35L192.01 206.73L191.07 206.06L190.19 205.34L189.34 204.57L188.52 203.75L187.76 202.89L187.03 201.96L186.37 201L185.73 199.99L185.16 198.92L184.62 197.81L184.15 196.66L183.71 195.47L183.33 194.23L183.01 192.95L182.73 191.63L182.52 190.27L182.36 188.86L182.26 187.42L182.22 185.94L182.23 184.42L182.31 182.87L182.45 181.28L182.65 179.65L182.91 177.99L183.31 176.2L183.83 174.45L184.48 172.74L185.25 171.09L186.11 169.49L187.08 167.94L188.15 166.45L189.3 165.04L190.54 163.67L191.84 162.38L193.2 161.17L194.61 160.03L196.09 158.97L197.6 158L199.14 157.11L200.71 156.31L202.3 155.6L203.9 154.98L205.52 154.47L207.12 154.06L208.7 153.76L210.28 153.56L211.83 153.47L213.34 153.51L214.82 153.66ZM207.7 160.58L206.4 162.37L205.14 164.85L203.95 168.01L202.88 171.85L201.95 176.35L201.21 181.5L201.15 182.28L201.11 183.05L201.09 183.82L201.08 184.58L201.08 185.33L201.09 186.07L201.11 186.79L201.16 187.52L201.23 188.23L201.31 188.92L204.24 186.46L206.74 183.57L208.84 180.39L210.54 177.05L211.83 173.68L212.72 170.39L213.21 167.3L213.31 164.55L213.02 162.26L212.34 160.55L211.34 159.47L210.21 159.12L208.98 159.5L207.7 160.58Z" id="e1NmrJSUU"></path><path d="M214.82 153.66L216.26 153.93L217.62 154.33L218.93 154.86L220.17 155.51L221.33 156.31L222.41 157.25L223.4 158.32L224.28 159.53L224.83 160.5L225.31 161.5L225.67 162.53L225.96 163.61L226.16 164.71L226.27 165.84L226.3 167L226.25 168.17L226.11 169.36L225.9 170.58L225.61 171.79L225.25 173.01L224.81 174.24L224.31 175.48L223.73 176.7L223.08 177.93L222.37 179.15L221.6 180.35L220.77 181.54L219.87 182.72L218.92 183.87L217.91 184.99L216.84 186.09L215.73 187.17L214.56 188.19L213.34 189.19L212.08 190.14L210.77 191.06L209.42 191.92L208.02 192.73L206.58 193.5L205.1 194.2L203.6 194.83L203.54 194.86L203.49 194.87L203.4 194.91L203.14 195L203.08 195.01L202.98 195.05L202.95 195.06L202.89 195.07L202.84 195.1L202.79 195.11L202.75 195.12L202.7 195.13L203.03 195.96L203.39 196.76L203.77 197.52L204.17 198.26L204.59 198.95L205.04 199.61L205.52 200.25L206 200.84L206.52 201.39L207.04 201.89L207.59 202.36L208.15 202.79L208.73 203.16L209.32 203.5L209.93 203.79L210.56 204.02L211.19 204.21L211.83 204.35L212.49 204.44L213.16 204.47L213.84 204.45L214.52 204.36L215.22 204.22L215.92 204.02L216.62 203.77L217.33 203.45L218.06 203.06L218.77 202.61L219.5 202.1L220.22 201.52L220.95 200.86L221.67 200.15L222.38 199.35L222.73 198.98L223.06 198.65L223.38 198.35L223.71 198.08L224.01 197.85L224.31 197.63L224.6 197.46L224.87 197.31L225.14 197.2L225.39 197.11L225.62 197.05L225.85 197.02L226.05 197.01L226.24 197.03L226.41 197.1L226.56 197.17L226.7 197.27L226.81 197.41L226.9 197.56L226.97 197.75L227.02 197.95L227.05 198.17L227.05 198.43L227.02 198.71L226.97 199.01L226.9 199.32L226.8 199.67L226.67 200.04L226.51 200.42L226.32 200.82L226.11 201.25L225.86 201.7L225.57 202.16L225.21 202.71L224.8 203.25L224.37 203.77L223.9 204.27L223.41 204.76L222.88 205.22L222.33 205.67L221.76 206.1L221.16 206.51L220.53 206.9L219.88 207.28L219.21 207.63L218.52 207.96L217.81 208.28L217.08 208.56L216.33 208.84L215.57 209.09L214.79 209.33L213.99 209.54L213.19 209.73L212.37 209.9L211.54 210.05L210.71 210.18L209.85 210.29L208.99 210.38L208.13 210.44L207.27 210.49L206.39 210.5L205.52 210.5L204.64 210.49L203.77 210.44L202.88 210.38L202 210.29L200.76 210.11L199.55 209.89L198.38 209.61L197.23 209.26L196.11 208.88L195.03 208.41L193.99 207.91L192.97 207.35L192.01 206.73L191.07 206.06L190.19 205.34L189.34 204.57L188.52 203.75L187.76 202.89L187.03 201.96L186.37 201L185.73 199.99L185.16 198.92L184.62 197.81L184.15 196.66L183.71 195.47L183.33 194.23L183.01 192.95L182.73 191.63L182.52 190.27L182.36 188.86L182.26 187.42L182.22 185.94L182.23 184.42L182.31 182.87L182.45 181.28L182.65 179.65L182.91 177.99L183.31 176.2L183.83 174.45L184.48 172.74L185.25 171.09L186.11 169.49L187.08 167.94L188.15 166.45L189.3 165.04L190.54 163.67L191.84 162.38L193.2 161.17L194.61 160.03L196.09 158.97L197.6 158L199.14 157.11L200.71 156.31L202.3 155.6L203.9 154.98L205.52 154.47L207.12 154.06L208.7 153.76L210.28 153.56L211.83 153.47L213.34 153.51L214.82 153.66ZM207.7 160.58L206.4 162.37L205.14 164.85L203.95 168.01L202.88 171.85L201.95 176.35L201.21 181.5L201.15 182.28L201.11 183.05L201.09 183.82L201.08 184.58L201.08 185.33L201.09 186.07L201.11 186.79L201.16 187.52L201.23 188.23L201.31 188.92L204.24 186.46L206.74 183.57L208.84 180.39L210.54 177.05L211.83 173.68L212.72 170.39L213.21 167.3L213.31 164.55L213.02 162.26L212.34 160.55L211.34 159.47L210.21 159.12L208.98 159.5L207.7 160.58Z" id="bA7hCcPyg"></path><path d="M255.82 180.33C255.82 178.52 257.41 174.3 262.27 171.9C261.97 168.49 259.8 167.59 258.2 168.89C252.23 173.5 244.98 190.74 246.87 203.19C246.97 203.49 246.97 203.79 246.97 204.09C247.27 205.2 247.57 206.3 247.96 207.4C248.96 210.21 239.21 213.31 233.74 209.1C231.85 207.7 230.86 196.67 230.86 177.52C230.86 161.77 234.34 147.83 236.23 147.33C247.67 144.22 254.32 149.63 250.74 160.26C248.66 166.29 246.77 172.4 245.68 178.82C250.04 166.89 257.31 155.85 263.17 152.94C273.61 147.73 281.17 154.64 278.98 166.89C278.88 167.09 278.79 167.59 278.79 167.69C278.69 168.69 277.78 171.8 278.09 170.79C277.16 173.73 276.5 174.85 275.7 176.11C272.85 180.59 268.74 183.93 265.06 185.14C260.78 186.44 255.82 185.24 255.82 180.33Z" id="a1ivUhHiH"></path><path d="M255.82 180.33C255.82 178.52 257.41 174.3 262.27 171.9C261.97 168.49 259.8 167.59 258.2 168.89C252.23 173.5 244.98 190.74 246.87 203.19C246.97 203.49 246.97 203.79 246.97 204.09C247.27 205.2 247.57 206.3 247.96 207.4C248.96 210.21 239.21 213.31 233.74 209.1C231.85 207.7 230.86 196.67 230.86 177.52C230.86 161.77 234.34 147.83 236.23 147.33C247.67 144.22 254.32 149.63 250.74 160.26C248.66 166.29 246.77 172.4 245.68 178.82C250.04 166.89 257.31 155.85 263.17 152.94C273.61 147.73 281.17 154.64 278.98 166.89C278.88 167.09 278.79 167.59 278.79 167.69C278.69 168.69 277.78 171.8 278.09 170.79C277.16 173.73 276.5 174.85 275.7 176.11C272.85 180.59 268.74 183.93 265.06 185.14C260.78 186.44 255.82 185.24 255.82 180.33Z" id="iaiHxbbApw"></path><path d="M346.7 95.96L347.8 96.15L348.9 96.42L349.99 96.77L351.16 97.25L352.26 97.79L353.29 98.4L354.25 99.08L355.14 99.81L355.95 100.61L356.69 101.48L357.35 102.38L357.93 103.34L358.44 104.34L358.87 105.39L359.2 106.49L359.45 107.63L359.63 108.79L359.72 109.99L359.72 111.23L359.62 112.49L359.44 113.77L359.17 115.08L358.79 116.41L358.33 117.74L357.77 119.11L357.1 120.47L356.34 121.85L355.48 123.22L354.52 124.61L353.44 125.98L352.28 127.36L350.99 128.72L349.6 130.09L348.1 131.44L346.49 132.76L344.76 134.08L342.92 135.36L340.97 136.64L338.9 137.88L336.71 139.09L334.4 140.26L331.96 141.4L329.41 142.5L329.34 142.82L329.29 143.13L329.17 143.75L329.12 144.07L329.06 144.39L328.99 144.7L328.94 145.03L328.88 145.34L328.78 145.99L328.72 146.32L328.62 146.97L328.56 147.29L328.51 147.63L328.46 147.95L328.11 150.32L328.06 150.67L328.01 151.01L327.97 151.36L327.92 151.69L327.87 152.04L327.83 152.39L327.78 152.74L327.74 153.09L327.69 153.44L327.66 153.81L327.62 154.16L327.57 154.51L327.49 155.23L327.46 155.58L327.42 155.95L327.28 157.3L327.16 158.62L326.93 161.27L326.83 162.57L326.74 163.87L326.59 166.42L326.53 167.69L326.48 168.92L326.44 170.16L326.41 171.38L326.38 172.58L326.37 173.76L326.36 174.94L326.36 176.09L326.37 177.23L326.38 178.34L326.41 179.44L326.44 180.52L326.48 181.58L326.52 182.62L326.58 183.63L326.64 184.62L326.71 185.59L326.78 186.54L326.87 187.46L326.96 188.36L327.06 189.23L327.16 190.08L327.27 190.89L327.38 191.68L327.49 192.46L327.63 193.18L327.76 193.9L327.89 194.57L328.04 195.22L328.19 195.83L328.36 196.41L328.51 196.96L328.62 197.25L328.73 197.55L328.86 197.83L329.01 198.13L329.16 198.42L329.32 198.72L329.49 199.01L329.68 199.31L329.88 199.59L330.1 199.87L330.31 200.15L330.78 200.67L331.02 200.92L331.28 201.16L331.55 201.39L331.81 201.6L332.08 201.8L332.37 201.99L332.67 202.16L332.96 202.31L333.27 202.45L333.57 202.56L333.88 202.65L334.21 202.72L334.53 202.79L334.86 202.81L335.2 202.81L335.53 202.8L335.87 202.75L336.21 202.67L336.56 202.57L336.9 202.44L337.25 202.27L337.6 202.07L337.95 201.85L338.3 201.59L338.65 201.29L339 200.95L339.35 200.57L339.74 200.16L340.11 199.79L340.5 199.44L340.87 199.12L341.25 198.85L341.62 198.6L341.99 198.37L342.35 198.18L342.7 198.02L343.05 197.9L343.39 197.78L343.7 197.71L344.01 197.67L344.31 197.65L344.59 197.66L344.85 197.68L345.1 197.75L345.33 197.83L345.54 197.93L345.73 198.07L345.89 198.22L346.04 198.4L346.15 198.6L346.25 198.82L346.31 199.06L346.35 199.32L346.35 199.61L346.34 199.91L346.28 200.24L346.19 200.57L346.06 200.94L345.91 201.31L345.71 201.7L345.49 202.11L345.21 202.54L344.9 202.97L344.55 203.44L344.15 203.9L343.71 204.39L343.22 204.89L342.91 205.19L342.24 205.79L341.87 206.07L341.5 206.36L341.12 206.64L340.72 206.91L340.32 207.18L339.91 207.44L339.49 207.69L339.05 207.94L338.6 208.18L338.15 208.4L337.69 208.63L336.73 209.05L336.25 209.24L335.75 209.44L335.25 209.61L334.73 209.79L334.21 209.95L333.16 210.25L332.08 210.5L330.98 210.73L330.43 210.81L329.31 210.96L328.73 211.03L328.17 211.06L327.59 211.1L327.02 211.13L326.44 211.14L325.87 211.14L325.28 211.13L324.71 211.1L324.12 211.05L323.54 211L322.72 210.88L322.33 210.8L321.55 210.6L321.18 210.49L320.82 210.38L320.45 210.24L320.1 210.1L319.77 209.95L319.43 209.79L319.1 209.61L318.78 209.43L318.47 209.24L318.15 209.04L317.85 208.83L317.57 208.61L317.28 208.38L316.73 207.9L316.2 207.38L315.95 207.1L315.72 206.81L315.47 206.53L315.24 206.22L314.79 205.6L314.58 205.27L314.36 204.94L314.16 204.6L313.96 204.25L313.78 203.9L313.59 203.52L313.41 203.16L313.24 202.77L313.08 202.39L312.75 201.59L312.6 201.17L312.54 201.3L312.49 201.42L312.36 201.65L312.3 201.77L311.86 202.56L311.79 202.67L311.73 202.79L311.66 202.89L311.6 203L311.53 203.11L311.46 203.21L311.39 203.31L311.33 203.42L311.25 203.52L311.19 203.62L311.04 203.82L310.98 203.92L310.83 204.12L310.75 204.21L310.6 204.41L310.45 204.59L310.38 204.69L310.23 204.86L310.14 204.95L309.99 205.12L309.9 205.2L309.83 205.29L309.25 205.86L308.96 206.14L308.66 206.41L308.36 206.68L307.76 207.18L307.45 207.43L307.15 207.65L306.82 207.89L306.51 208.1L305.86 208.53L305.54 208.73L305.21 208.91L304.54 209.26L304.19 209.44L303.85 209.59L303.5 209.74L303.14 209.88L302.79 210.01L302.42 210.14L302.05 210.25L301.69 210.35L301.31 210.45L300.92 210.54L300.55 210.61L300.16 210.69L299.76 210.75L299.37 210.8L298.97 210.84L298.56 210.86L298.16 210.89L297.75 210.9L297.32 210.9L296.47 210.88L295.6 210.8L294.72 210.69L293.86 210.53L293.02 210.31L292.21 210.08L291.41 209.79L290.62 209.46L289.87 209.09L289.13 208.69L288.42 208.24L287.72 207.76L287.06 207.24L286.41 206.69L285.79 206.09L285.19 205.46L284.63 204.8L284.08 204.1L283.57 203.36L283.08 202.6L282.62 201.8L282.18 200.96L281.77 200.1L281.39 199.21L281.04 198.28L280.73 197.32L280.43 196.33L280.18 195.32L279.95 194.28L279.75 193.21L279.59 192.12L279.47 190.99L279.37 189.84L279.3 188.67L279.28 187.47L279.29 186.24L279.33 184.99L279.4 183.72L279.52 182.43L279.68 181.1L279.87 179.77L280.09 178.42L280.38 176.99L280.7 175.61L281.09 174.29L281.5 173L281.98 171.76L282.48 170.58L283.02 169.42L283.6 168.32L284.22 167.27L284.85 166.26L285.54 165.3L286.24 164.39L286.98 163.51L287.73 162.68L288.52 161.91L289.32 161.17L290.13 160.48L290.97 159.85L291.82 159.25L292.7 158.7L293.57 158.18L294.46 157.73L295.36 157.31L296.26 156.95L297.16 156.62L298.07 156.35L298.97 156.11L299.88 155.93L300.79 155.78L301.67 155.7L302.57 155.65L303.45 155.65L304.31 155.68L305.17 155.77L306.01 155.91L306.84 156.08L307.64 156.31L308.43 156.58L309.19 156.9L309.91 157.26L309.94 157.07L309.95 156.9L309.96 156.71L309.98 156.53L309.99 156.35L310.01 156.17L310.03 156L310.04 155.81L310.05 155.63L310.06 155.44L310.09 155.27L310.1 155.08L310.11 154.91L310.13 154.72L310.14 154.54L310.16 154.36L310.18 154.18L310.2 153.81L310.21 153.63L310.24 153.44L310.25 153.27L310.28 152.89L310.29 152.72L310.31 152.53L310.33 152.34L310.34 152.17L310.36 151.79L310.39 151.61L310.4 151.42L310.41 151.24L310.45 150.68L310.48 150.49L310.51 149.93L310.53 149.89L310.53 149.86L310.54 149.82L310.54 149.78L310.55 149.74L310.55 149.71L310.56 149.67L310.56 149.63L310.58 149.59L310.58 149.52L310.59 149.48L310.59 149.41L310.6 149.37L310.6 149.29L310.61 149.26L310.63 149.11L310.63 149.03L310.64 148.99L310.64 148.92L310.65 148.88L310.65 148.81L310.66 148.77L310.66 148.69L310.68 148.66L310.68 148.62L310.69 148.58L310.69 148.54L310.7 148.51L310.7 148.47L310.71 148.43L310.5 148.47L310.29 148.52L310.09 148.57L309.88 148.61L309.66 148.66L309.45 148.69L309.03 148.79L308.8 148.83L308.59 148.88L308.38 148.92L308.16 148.97L307.94 149.01L307.73 149.06L307.5 149.09L307.29 149.14L307.06 149.19L306.84 149.23L306.62 149.27L306.4 149.32L306.17 149.36L305.96 149.41L305.74 149.44L305.51 149.49L305.06 149.57L304.84 149.62L304.39 149.69L304.16 149.74L303.92 149.78L303.47 149.86L303.25 149.91L303.01 149.94L302.56 150.02L302.32 150.06L302.1 150.09L301.86 150.13L298.76 150.59L295.87 150.89L293.18 151.06L290.69 151.08L288.41 150.97L286.29 150.73L284.37 150.37L282.62 149.91L281.03 149.33L279.6 148.66L278.34 147.88L277.24 147.03L276.26 146.09L275.44 145.07L274.75 143.99L274.19 142.84L273.75 141.64L273.43 140.39L273.23 139.1L273.11 137.78L273.11 136.41L273.2 135.03L273.38 133.62L273.64 132.21L273.98 130.79L274.38 129.37L274.85 127.96L275.38 126.57L275.96 125.2L276.6 123.85L277.28 122.52L277.98 121.25L278.73 120.02L279.49 118.84L280.27 117.72L281.07 116.67L281.87 115.68L282.68 114.78L283.48 113.96L284.27 113.23L285.13 112.49L285.97 111.82L286.76 111.2L287.51 110.65L288.22 110.15L288.89 109.7L289.54 109.32L290.14 108.97L290.72 108.68L291.26 108.43L291.76 108.23L292.22 108.07L292.66 107.94L293.06 107.85L293.42 107.8L293.76 107.79L294.07 107.8L294.35 107.85L294.6 107.93L294.81 108.02L295 108.14L295.15 108.29L295.28 108.45L295.38 108.63L295.46 108.83L295.51 109.04L295.53 109.25L295.53 109.49L295.51 109.73L295.46 109.97L295.38 110.22L295.28 110.45L295.16 110.7L295.01 110.94L294.85 111.18L294.66 111.42L294.46 111.63L294.22 111.84L293.98 112.04L293.71 112.22L293.23 112.58L292.76 112.99L292.31 113.49L291.87 114.04L291.46 114.66L291.07 115.32L290.71 116.03L290.36 116.79L290.04 117.59L289.76 118.43L289.51 119.31L289.28 120.21L289.09 121.13L288.94 122.08L288.83 123.06L288.76 124.03L288.72 125.02L288.73 126.01L288.78 127L288.88 128L289.02 128.97L289.22 129.94L289.46 130.9L289.76 131.82L290.11 132.74L290.52 133.61L290.98 134.46L291.51 135.26L292.09 136.04L292.75 136.76L293.46 137.44L294.25 138.05L295.08 138.61L296.01 139.13L297 139.55L298.06 139.93L299.18 140.21L300.4 140.43L301.69 140.56L303.06 140.6L303.97 140.6L304.21 140.59L304.66 140.59L304.89 140.58L305.11 140.58L305.34 140.56L305.56 140.56L306.01 140.54L306.24 140.54L306.45 140.53L306.9 140.5L307.11 140.49L307.56 140.46L307.78 140.45L308 140.44L308.21 140.43L308.44 140.41L308.65 140.39L308.88 140.38L309.09 140.36L309.31 140.34L309.53 140.33L309.74 140.3L309.96 140.29L310.18 140.26L310.39 140.25L310.61 140.23L310.83 140.21L311.04 140.19L311.26 140.16L311.48 140.15L311.69 140.13L311.91 140.1L312.36 137.68L312.88 135.33L313.43 133.04L314.01 130.8L314.64 128.64L315.3 126.54L316 124.51L316.74 122.55L317.5 120.65L318.3 118.81L319.14 117.04L319.99 115.34L320.88 113.71L321.79 112.14L322.73 110.65L323.69 109.23L324.68 107.87L325.68 106.58L326.71 105.37L327.74 104.23L328.79 103.15L329.87 102.15L330.96 101.21L332.05 100.36L333.16 99.58L334.27 98.86L335.38 98.23L336.52 97.65L337.65 97.16L338.79 96.75L339.92 96.41L341.06 96.14L342.2 95.95L343.32 95.84L344.46 95.8L345.58 95.84L346.7 95.96ZM304.74 163.07L303.56 163.95L302.44 165.1L301.39 166.5L300.39 168.14L299.47 170L298.65 172.06L297.91 174.3L297.28 176.7L296.78 179.25L296.4 181.93L296.16 185.02L296.15 187.88L296.35 190.52L296.73 192.91L297.27 195.05L297.95 196.91L298.72 198.51L299.58 199.82L300.51 200.84L301.46 201.55L302.44 201.95L303.39 202.04L304.3 201.77L305.15 201.17L305.75 200.46L306.3 199.59L306.81 198.56L307.29 197.43L307.71 196.21L308.11 194.95L308.46 193.65L308.79 192.35L309.06 191.07L309.3 189.84L309.51 188.71L309.68 187.67L309.81 186.77L309.91 186.03L309.84 184.67L309.78 183.28L309.71 181.87L309.66 180.44L309.63 178.99L309.6 177.52L309.59 176.03L309.58 174.53L309.56 173.01L309.56 171.49L309.58 169.95L309.59 168.4L309.6 166.84L309.63 165.27L309.63 164.89L309.64 164.7L309.64 164.5L309.69 163.75L309.69 163.56L309.7 163.37L309.71 163.2L309.71 163.01L309.73 162.84L309.73 162.66L308.45 162.26L307.19 162.21L305.94 162.48L304.74 163.07ZM346.69 108.42L344.55 109.84L342.29 111.98L339.96 114.86L337.65 118.52L335.38 123.01L333.26 128.35L331.3 134.59L335.68 132.24L339.56 129.66L342.95 126.95L345.85 124.17L348.26 121.4L350.19 118.69L351.65 116.16L352.64 113.84L353.18 111.83L353.25 110.19L352.88 109.02L351.8 107.99L350.38 107.53L348.65 107.65L346.69 108.42Z" id="dCNk7es5w"></path><path d="M346.7 95.96L347.8 96.15L348.9 96.42L349.99 96.77L351.16 97.25L352.26 97.79L353.29 98.4L354.25 99.08L355.14 99.81L355.95 100.61L356.69 101.48L357.35 102.38L357.93 103.34L358.44 104.34L358.87 105.39L359.2 106.49L359.45 107.63L359.63 108.79L359.72 109.99L359.72 111.23L359.62 112.49L359.44 113.77L359.17 115.08L358.79 116.41L358.33 117.74L357.77 119.11L357.1 120.47L356.34 121.85L355.48 123.22L354.52 124.61L353.44 125.98L352.28 127.36L350.99 128.72L349.6 130.09L348.1 131.44L346.49 132.76L344.76 134.08L342.92 135.36L340.97 136.64L338.9 137.88L336.71 139.09L334.4 140.26L331.96 141.4L329.41 142.5L329.34 142.82L329.29 143.13L329.17 143.75L329.12 144.07L329.06 144.39L328.99 144.7L328.94 145.03L328.88 145.34L328.78 145.99L328.72 146.32L328.62 146.97L328.56 147.29L328.51 147.63L328.46 147.95L328.11 150.32L328.06 150.67L328.01 151.01L327.97 151.36L327.92 151.69L327.87 152.04L327.83 152.39L327.78 152.74L327.74 153.09L327.69 153.44L327.66 153.81L327.62 154.16L327.57 154.51L327.49 155.23L327.46 155.58L327.42 155.95L327.28 157.3L327.16 158.62L326.93 161.27L326.83 162.57L326.74 163.87L326.59 166.42L326.53 167.69L326.48 168.92L326.44 170.16L326.41 171.38L326.38 172.58L326.37 173.76L326.36 174.94L326.36 176.09L326.37 177.23L326.38 178.34L326.41 179.44L326.44 180.52L326.48 181.58L326.52 182.62L326.58 183.63L326.64 184.62L326.71 185.59L326.78 186.54L326.87 187.46L326.96 188.36L327.06 189.23L327.16 190.08L327.27 190.89L327.38 191.68L327.49 192.46L327.63 193.18L327.76 193.9L327.89 194.57L328.04 195.22L328.19 195.83L328.36 196.41L328.51 196.96L328.62 197.25L328.73 197.55L328.86 197.83L329.01 198.13L329.16 198.42L329.32 198.72L329.49 199.01L329.68 199.31L329.88 199.59L330.1 199.87L330.31 200.15L330.78 200.67L331.02 200.92L331.28 201.16L331.55 201.39L331.81 201.6L332.08 201.8L332.37 201.99L332.67 202.16L332.96 202.31L333.27 202.45L333.57 202.56L333.88 202.65L334.21 202.72L334.53 202.79L334.86 202.81L335.2 202.81L335.53 202.8L335.87 202.75L336.21 202.67L336.56 202.57L336.9 202.44L337.25 202.27L337.6 202.07L337.95 201.85L338.3 201.59L338.65 201.29L339 200.95L339.35 200.57L339.74 200.16L340.11 199.79L340.5 199.44L340.87 199.12L341.25 198.85L341.62 198.6L341.99 198.37L342.35 198.18L342.7 198.02L343.05 197.9L343.39 197.78L343.7 197.71L344.01 197.67L344.31 197.65L344.59 197.66L344.85 197.68L345.1 197.75L345.33 197.83L345.54 197.93L345.73 198.07L345.89 198.22L346.04 198.4L346.15 198.6L346.25 198.82L346.31 199.06L346.35 199.32L346.35 199.61L346.34 199.91L346.28 200.24L346.19 200.57L346.06 200.94L345.91 201.31L345.71 201.7L345.49 202.11L345.21 202.54L344.9 202.97L344.55 203.44L344.15 203.9L343.71 204.39L343.22 204.89L342.91 205.19L342.24 205.79L341.87 206.07L341.5 206.36L341.12 206.64L340.72 206.91L340.32 207.18L339.91 207.44L339.49 207.69L339.05 207.94L338.6 208.18L338.15 208.4L337.69 208.63L336.73 209.05L336.25 209.24L335.75 209.44L335.25 209.61L334.73 209.79L334.21 209.95L333.16 210.25L332.08 210.5L330.98 210.73L330.43 210.81L329.31 210.96L328.73 211.03L328.17 211.06L327.59 211.1L327.02 211.13L326.44 211.14L325.87 211.14L325.28 211.13L324.71 211.1L324.12 211.05L323.54 211L322.72 210.88L322.33 210.8L321.55 210.6L321.18 210.49L320.82 210.38L320.45 210.24L320.1 210.1L319.77 209.95L319.43 209.79L319.1 209.61L318.78 209.43L318.47 209.24L318.15 209.04L317.85 208.83L317.57 208.61L317.28 208.38L316.73 207.9L316.2 207.38L315.95 207.1L315.72 206.81L315.47 206.53L315.24 206.22L314.79 205.6L314.58 205.27L314.36 204.94L314.16 204.6L313.96 204.25L313.78 203.9L313.59 203.52L313.41 203.16L313.24 202.77L313.08 202.39L312.75 201.59L312.6 201.17L312.54 201.3L312.49 201.42L312.36 201.65L312.3 201.77L311.86 202.56L311.79 202.67L311.73 202.79L311.66 202.89L311.6 203L311.53 203.11L311.46 203.21L311.39 203.31L311.33 203.42L311.25 203.52L311.19 203.62L311.04 203.82L310.98 203.92L310.83 204.12L310.75 204.21L310.6 204.41L310.45 204.59L310.38 204.69L310.23 204.86L310.14 204.95L309.99 205.12L309.9 205.2L309.83 205.29L309.25 205.86L308.96 206.14L308.66 206.41L308.36 206.68L307.76 207.18L307.45 207.43L307.15 207.65L306.82 207.89L306.51 208.1L305.86 208.53L305.54 208.73L305.21 208.91L304.54 209.26L304.19 209.44L303.85 209.59L303.5 209.74L303.14 209.88L302.79 210.01L302.42 210.14L302.05 210.25L301.69 210.35L301.31 210.45L300.92 210.54L300.55 210.61L300.16 210.69L299.76 210.75L299.37 210.8L298.97 210.84L298.56 210.86L298.16 210.89L297.75 210.9L297.32 210.9L296.47 210.88L295.6 210.8L294.72 210.69L293.86 210.53L293.02 210.31L292.21 210.08L291.41 209.79L290.62 209.46L289.87 209.09L289.13 208.69L288.42 208.24L287.72 207.76L287.06 207.24L286.41 206.69L285.79 206.09L285.19 205.46L284.63 204.8L284.08 204.1L283.57 203.36L283.08 202.6L282.62 201.8L282.18 200.96L281.77 200.1L281.39 199.21L281.04 198.28L280.73 197.32L280.43 196.33L280.18 195.32L279.95 194.28L279.75 193.21L279.59 192.12L279.47 190.99L279.37 189.84L279.3 188.67L279.28 187.47L279.29 186.24L279.33 184.99L279.4 183.72L279.52 182.43L279.68 181.1L279.87 179.77L280.09 178.42L280.38 176.99L280.7 175.61L281.09 174.29L281.5 173L281.98 171.76L282.48 170.58L283.02 169.42L283.6 168.32L284.22 167.27L284.85 166.26L285.54 165.3L286.24 164.39L286.98 163.51L287.73 162.68L288.52 161.91L289.32 161.17L290.13 160.48L290.97 159.85L291.82 159.25L292.7 158.7L293.57 158.18L294.46 157.73L295.36 157.31L296.26 156.95L297.16 156.62L298.07 156.35L298.97 156.11L299.88 155.93L300.79 155.78L301.67 155.7L302.57 155.65L303.45 155.65L304.31 155.68L305.17 155.77L306.01 155.91L306.84 156.08L307.64 156.31L308.43 156.58L309.19 156.9L309.91 157.26L309.94 157.07L309.95 156.9L309.96 156.71L309.98 156.53L309.99 156.35L310.01 156.17L310.03 156L310.04 155.81L310.05 155.63L310.06 155.44L310.09 155.27L310.1 155.08L310.11 154.91L310.13 154.72L310.14 154.54L310.16 154.36L310.18 154.18L310.2 153.81L310.21 153.63L310.24 153.44L310.25 153.27L310.28 152.89L310.29 152.72L310.31 152.53L310.33 152.34L310.34 152.17L310.36 151.79L310.39 151.61L310.4 151.42L310.41 151.24L310.45 150.68L310.48 150.49L310.51 149.93L310.53 149.89L310.53 149.86L310.54 149.82L310.54 149.78L310.55 149.74L310.55 149.71L310.56 149.67L310.56 149.63L310.58 149.59L310.58 149.52L310.59 149.48L310.59 149.41L310.6 149.37L310.6 149.29L310.61 149.26L310.63 149.11L310.63 149.03L310.64 148.99L310.64 148.92L310.65 148.88L310.65 148.81L310.66 148.77L310.66 148.69L310.68 148.66L310.68 148.62L310.69 148.58L310.69 148.54L310.7 148.51L310.7 148.47L310.71 148.43L310.5 148.47L310.29 148.52L310.09 148.57L309.88 148.61L309.66 148.66L309.45 148.69L309.03 148.79L308.8 148.83L308.59 148.88L308.38 148.92L308.16 148.97L307.94 149.01L307.73 149.06L307.5 149.09L307.29 149.14L307.06 149.19L306.84 149.23L306.62 149.27L306.4 149.32L306.17 149.36L305.96 149.41L305.74 149.44L305.51 149.49L305.06 149.57L304.84 149.62L304.39 149.69L304.16 149.74L303.92 149.78L303.47 149.86L303.25 149.91L303.01 149.94L302.56 150.02L302.32 150.06L302.1 150.09L301.86 150.13L298.76 150.59L295.87 150.89L293.18 151.06L290.69 151.08L288.41 150.97L286.29 150.73L284.37 150.37L282.62 149.91L281.03 149.33L279.6 148.66L278.34 147.88L277.24 147.03L276.26 146.09L275.44 145.07L274.75 143.99L274.19 142.84L273.75 141.64L273.43 140.39L273.23 139.1L273.11 137.78L273.11 136.41L273.2 135.03L273.38 133.62L273.64 132.21L273.98 130.79L274.38 129.37L274.85 127.96L275.38 126.57L275.96 125.2L276.6 123.85L277.28 122.52L277.98 121.25L278.73 120.02L279.49 118.84L280.27 117.72L281.07 116.67L281.87 115.68L282.68 114.78L283.48 113.96L284.27 113.23L285.13 112.49L285.97 111.82L286.76 111.2L287.51 110.65L288.22 110.15L288.89 109.7L289.54 109.32L290.14 108.97L290.72 108.68L291.26 108.43L291.76 108.23L292.22 108.07L292.66 107.94L293.06 107.85L293.42 107.8L293.76 107.79L294.07 107.8L294.35 107.85L294.6 107.93L294.81 108.02L295 108.14L295.15 108.29L295.28 108.45L295.38 108.63L295.46 108.83L295.51 109.04L295.53 109.25L295.53 109.49L295.51 109.73L295.46 109.97L295.38 110.22L295.28 110.45L295.16 110.7L295.01 110.94L294.85 111.18L294.66 111.42L294.46 111.63L294.22 111.84L293.98 112.04L293.71 112.22L293.23 112.58L292.76 112.99L292.31 113.49L291.87 114.04L291.46 114.66L291.07 115.32L290.71 116.03L290.36 116.79L290.04 117.59L289.76 118.43L289.51 119.31L289.28 120.21L289.09 121.13L288.94 122.08L288.83 123.06L288.76 124.03L288.72 125.02L288.73 126.01L288.78 127L288.88 128L289.02 128.97L289.22 129.94L289.46 130.9L289.76 131.82L290.11 132.74L290.52 133.61L290.98 134.46L291.51 135.26L292.09 136.04L292.75 136.76L293.46 137.44L294.25 138.05L295.08 138.61L296.01 139.13L297 139.55L298.06 139.93L299.18 140.21L300.4 140.43L301.69 140.56L303.06 140.6L303.97 140.6L304.21 140.59L304.66 140.59L304.89 140.58L305.11 140.58L305.34 140.56L305.56 140.56L306.01 140.54L306.24 140.54L306.45 140.53L306.9 140.5L307.11 140.49L307.56 140.46L307.78 140.45L308 140.44L308.21 140.43L308.44 140.41L308.65 140.39L308.88 140.38L309.09 140.36L309.31 140.34L309.53 140.33L309.74 140.3L309.96 140.29L310.18 140.26L310.39 140.25L310.61 140.23L310.83 140.21L311.04 140.19L311.26 140.16L311.48 140.15L311.69 140.13L311.91 140.1L312.36 137.68L312.88 135.33L313.43 133.04L314.01 130.8L314.64 128.64L315.3 126.54L316 124.51L316.74 122.55L317.5 120.65L318.3 118.81L319.14 117.04L319.99 115.34L320.88 113.71L321.79 112.14L322.73 110.65L323.69 109.23L324.68 107.87L325.68 106.58L326.71 105.37L327.74 104.23L328.79 103.15L329.87 102.15L330.96 101.21L332.05 100.36L333.16 99.58L334.27 98.86L335.38 98.23L336.52 97.65L337.65 97.16L338.79 96.75L339.92 96.41L341.06 96.14L342.2 95.95L343.32 95.84L344.46 95.8L345.58 95.84L346.7 95.96ZM304.74 163.07L303.56 163.95L302.44 165.1L301.39 166.5L300.39 168.14L299.47 170L298.65 172.06L297.91 174.3L297.28 176.7L296.78 179.25L296.4 181.93L296.16 185.02L296.15 187.88L296.35 190.52L296.73 192.91L297.27 195.05L297.95 196.91L298.72 198.51L299.58 199.82L300.51 200.84L301.46 201.55L302.44 201.95L303.39 202.04L304.3 201.77L305.15 201.17L305.75 200.46L306.3 199.59L306.81 198.56L307.29 197.43L307.71 196.21L308.11 194.95L308.46 193.65L308.79 192.35L309.06 191.07L309.3 189.84L309.51 188.71L309.68 187.67L309.81 186.77L309.91 186.03L309.84 184.67L309.78 183.28L309.71 181.87L309.66 180.44L309.63 178.99L309.6 177.52L309.59 176.03L309.58 174.53L309.56 173.01L309.56 171.49L309.58 169.95L309.59 168.4L309.6 166.84L309.63 165.27L309.63 164.89L309.64 164.7L309.64 164.5L309.69 163.75L309.69 163.56L309.7 163.37L309.71 163.2L309.71 163.01L309.73 162.84L309.73 162.66L308.45 162.26L307.19 162.21L305.94 162.48L304.74 163.07ZM346.69 108.42L344.55 109.84L342.29 111.98L339.96 114.86L337.65 118.52L335.38 123.01L333.26 128.35L331.3 134.59L335.68 132.24L339.56 129.66L342.95 126.95L345.85 124.17L348.26 121.4L350.19 118.69L351.65 116.16L352.64 113.84L353.18 111.83L353.25 110.19L352.88 109.02L351.8 107.99L350.38 107.53L348.65 107.65L346.69 108.42Z" id="g2Bvl7gNat"></path></defs><g><g><g><g><use xlink:href="#c1yOaFe0zP" opacity="1" fill="#f23939" fill-opacity="1"></use><g><use xlink:href="#c1yOaFe0zP" opacity="1" fill-opacity="0" stroke="#000000" stroke-width="1" stroke-opacity="0"></use></g></g><g><use xlink:href="#dUZOFYF80" opacity="1" fill="#000000" fill-opacity="0"></use><g><use xlink:href="#dUZOFYF80" opacity="1" fill-opacity="0" stroke="#000000" stroke-width="1" stroke-opacity="0"></use></g></g><g><use xlink:href="#bzOWGGYPX" opacity="1" fill="#000000" fill-opacity="0"></use><g><use xlink:href="#bzOWGGYPX" opacity="1" fill-opacity="0" stroke="#000000" stroke-width="1" stroke-opacity="0"></use></g></g><g><use xlink:href="#a2Gtzgw3y" opacity="1" fill="#000000" fill-opacity="0"></use><g><use xlink:href="#a2Gtzgw3y" opacity="1" fill-opacity="0" stroke="#000000" stroke-width="0" stroke-opacity="1"></use></g></g><g><use xlink:href="#a34Eda9tKa" opacity="1" fill="#f23939" fill-opacity="1"></use><g><use xlink:href="#a34Eda9tKa" opacity="1" fill-opacity="0" stroke="#000000" stroke-width="1" stroke-opacity="0"></use></g></g><g><use xlink:href="#gDczsBhX6" opacity="1" fill="#000000" fill-opacity="0"></use><g><use xlink:href="#gDczsBhX6" opacity="1" fill-opacity="0" stroke="#000000" stroke-width="1" stroke-opacity="0"></use></g></g><g><use xlink:href="#d3y8z3Dtmv" opacity="1" fill="#08c27e" fill-opacity="1"></use><g><use xlink:href="#d3y8z3Dtmv" opacity="1" fill-opacity="0" stroke="#000000" stroke-width="1" stroke-opacity="0"></use></g></g><g><use xlink:href="#d4MUyrOme" opacity="1" fill="#000000" fill-opacity="0"></use><g><use xlink:href="#d4MUyrOme" opacity="1" fill-opacity="0" stroke="#000000" stroke-width="1" stroke-opacity="0"></use></g></g><g><use xlink:href="#hYgheDJO" opacity="1" fill="#08c27e" fill-opacity="1"></use><g><use xlink:href="#hYgheDJO" opacity="1" fill-opacity="0" stroke="#000000" stroke-width="1" stroke-opacity="0"></use></g></g><g><use xlink:href="#agbreWS6t" opacity="1" fill="#000000" fill-opacity="0"></use><g><use xlink:href="#agbreWS6t" opacity="1" fill-opacity="0" stroke="#000000" stroke-width="1" stroke-opacity="0"></use></g></g><g><use xlink:href="#b2UA77MuYE" opacity="1" fill="#087cc2" fill-opacity="1"></use><g><use xlink:href="#b2UA77MuYE" opacity="1" fill-opacity="0" stroke="#000000" stroke-width="1" stroke-opacity="0"></use></g></g><g><use xlink:href="#a18WqPiBUn" opacity="1" fill="#000000" fill-opacity="0"></use><g><use xlink:href="#a18WqPiBUn" opacity="1" fill-opacity="0" stroke="#000000" stroke-width="1" stroke-opacity="0"></use></g></g><g><use xlink:href="#d3F75b2qZ" opacity="1" fill="#087cc2" fill-opacity="1"></use><g><use xlink:href="#d3F75b2qZ" opacity="1" fill-opacity="0" stroke="#000000" stroke-width="1" stroke-opacity="0"></use></g></g><g><use xlink:href="#a2IxPrE0kZ" opacity="1" fill="#000000" fill-opacity="0"></use><g><use xlink:href="#a2IxPrE0kZ" opacity="1" fill-opacity="0" stroke="#000000" stroke-width="1" stroke-opacity="0"></use></g></g><g><use xlink:href="#bgYE4CNfZ" opacity="1" fill="#e7ca00" fill-opacity="1"></use><g><use xlink:href="#bgYE4CNfZ" opacity="1" fill-opacity="0" stroke="#000000" stroke-width="1" stroke-opacity="0"></use></g></g><g><use xlink:href="#a1wBzstj6B" opacity="1" fill="#000000" fill-opacity="0"></use><g><use xlink:href="#a1wBzstj6B" opacity="1" fill-opacity="0" stroke="#000000" stroke-width="1" stroke-opacity="0"></use></g></g><g><use xlink:href="#atAk5fYj0" opacity="1" fill="#e7ca00" fill-opacity="1"></use><g><use xlink:href="#atAk5fYj0" opacity="1" fill-opacity="0" stroke="#000000" stroke-width="1" stroke-opacity="0"></use></g></g><g><use xlink:href="#f34wRCNLxe" opacity="1" fill="#000000" fill-opacity="0"></use><g><use xlink:href="#f34wRCNLxe" opacity="1" fill-opacity="0" stroke="#000000" stroke-width="1" stroke-opacity="0"></use></g></g><g><use xlink:href="#a1Uo4y4VF" opacity="1" fill="#e7ca00" fill-opacity="1"></use><g><use xlink:href="#a1Uo4y4VF" opacity="1" fill-opacity="0" stroke="#000000" stroke-width="1" stroke-opacity="0"></use></g></g><g><use xlink:href="#o29FrHJT0" opacity="1" fill="#000000" fill-opacity="0"></use><g><use xlink:href="#o29FrHJT0" opacity="1" fill-opacity="0" stroke="#000000" stroke-width="1" stroke-opacity="0"></use></g></g><g><use xlink:href="#a7bQrtnjLH" opacity="1" fill="#08c27e" fill-opacity="1"></use><g><use xlink:href="#a7bQrtnjLH" opacity="1" fill-opacity="0" stroke="#000000" stroke-width="1" stroke-opacity="0"></use></g></g><g><use xlink:href="#b40GX2bFOt" opacity="1" fill="#000000" fill-opacity="0"></use><g><use xlink:href="#b40GX2bFOt" opacity="1" fill-opacity="0" stroke="#000000" stroke-width="1" stroke-opacity="0"></use></g></g><g><use xlink:href="#d1WlOJecqt" opacity="1" fill="#08c27e" fill-opacity="1"></use><g><use xlink:href="#d1WlOJecqt" opacity="1" fill-opacity="0" stroke="#000000" stroke-width="1" stroke-opacity="0"></use></g></g><g><use xlink:href="#b1azLduQfB" opacity="1" fill="#000000" fill-opacity="0"></use><g><use xlink:href="#b1azLduQfB" opacity="1" fill-opacity="0" stroke="#000000" stroke-width="1" stroke-opacity="0"></use></g></g><g><use xlink:href="#bD1ohTcBN" opacity="1" fill="#08c27e" fill-opacity="1"></use><g><use xlink:href="#bD1ohTcBN" opacity="1" fill-opacity="0" stroke="#000000" stroke-width="1" stroke-opacity="0"></use></g></g><g><use xlink:href="#byiyZHZ5" opacity="1" fill="#000000" fill-opacity="0"></use><g><use xlink:href="#byiyZHZ5" opacity="1" fill-opacity="0" stroke="#000000" stroke-width="1" stroke-opacity="0"></use></g></g><g><use xlink:href="#a3Hs4lHFAB" opacity="1" fill="#08c27e" fill-opacity="1"></use><g><use xlink:href="#a3Hs4lHFAB" opacity="1" fill-opacity="0" stroke="#000000" stroke-width="1" stroke-opacity="0"></use></g></g><g><use xlink:href="#a50VuBFIRz" opacity="1" fill="#000000" fill-opacity="0"></use><g><use xlink:href="#a50VuBFIRz" opacity="1" fill-opacity="0" stroke="#000000" stroke-width="1" stroke-opacity="0"></use></g></g><g><use xlink:href="#a3LKt3t0j" opacity="1" fill="#f23939" fill-opacity="1"></use><g><use xlink:href="#a3LKt3t0j" opacity="1" fill-opacity="0" stroke="#000000" stroke-width="1" stroke-opacity="0"></use></g></g><g><use xlink:href="#a2kRYRU7m" opacity="1" fill="#000000" fill-opacity="0"></use><g><use xlink:href="#a2kRYRU7m" opacity="1" fill-opacity="0" stroke="#000000" stroke-width="1" stroke-opacity="0"></use></g></g><g><use xlink:href="#e1pZ4RFiF7" opacity="1" fill="#f23939" fill-opacity="1"></use><g><use xlink:href="#e1pZ4RFiF7" opacity="1" fill-opacity="0" stroke="#000000" stroke-width="1" stroke-opacity="0"></use></g></g><g><use xlink:href="#c2VLsa2Lj" opacity="1" fill="#000000" fill-opacity="0"></use><g><use xlink:href="#c2VLsa2Lj" opacity="1" fill-opacity="0" stroke="#000000" stroke-width="1" stroke-opacity="0"></use></g></g><g><use xlink:href="#a2VTpkWanO" opacity="1" fill="#e7ca00" fill-opacity="1"></use><g><use xlink:href="#a2VTpkWanO" opacity="1" fill-opacity="0" stroke="#000000" stroke-width="1" stroke-opacity="0"></use></g></g><g><use xlink:href="#b3XY3x4y07" opacity="1" fill="#000000" fill-opacity="0"></use><g><use xlink:href="#b3XY3x4y07" opacity="1" fill-opacity="0" stroke="#000000" stroke-width="1" stroke-opacity="0"></use></g></g><g><use xlink:href="#adb7juepd" opacity="1" fill="#000000" fill-opacity="1"></use><g><use xlink:href="#adb7juepd" opacity="1" fill-opacity="0" stroke="#000000" stroke-width="1" stroke-opacity="0"></use></g></g><g><use xlink:href="#b136Nvmn4l" opacity="1" fill="#000000" fill-opacity="0"></use><g><use xlink:href="#b136Nvmn4l" opacity="1" fill-opacity="0" stroke="#000000" stroke-width="1" stroke-opacity="0"></use></g></g><g><use xlink:href="#l56lSsmoEj" opacity="1" fill="#000000" fill-opacity="1"></use><g><use xlink:href="#l56lSsmoEj" opacity="1" fill-opacity="0" stroke="#000000" stroke-width="1" stroke-opacity="0"></use></g></g><g><use xlink:href="#aL2qiyzuO" opacity="1" fill="#000000" fill-opacity="0"></use><g><use xlink:href="#aL2qiyzuO" opacity="1" fill-opacity="0" stroke="#000000" stroke-width="1" stroke-opacity="0"></use></g></g><g><use xlink:href="#clWn84HbQ" opacity="1" fill="#000000" fill-opacity="1"></use><g><use xlink:href="#clWn84HbQ" opacity="1" fill-opacity="0" stroke="#000000" stroke-width="1" stroke-opacity="0"></use></g></g><g><use xlink:href="#a3xbblU5HL" opacity="1" fill="#000000" fill-opacity="0"></use><g><use xlink:href="#a3xbblU5HL" opacity="1" fill-opacity="0" stroke="#000000" stroke-width="1" stroke-opacity="0"></use></g></g><g><use xlink:href="#g1HgdDFBpH" opacity="1" fill="#000000" fill-opacity="1"></use><g><use xlink:href="#g1HgdDFBpH" opacity="1" fill-opacity="0" stroke="#000000" stroke-width="1" stroke-opacity="0"></use></g></g><g><use xlink:href="#aaWSDQvwK" opacity="1" fill="#000000" fill-opacity="0"></use><g><use xlink:href="#aaWSDQvwK" opacity="1" fill-opacity="0" stroke="#000000" stroke-width="1" stroke-opacity="0"></use></g></g><g><use xlink:href="#bmumPnRoQ" opacity="1" fill="#000000" fill-opacity="1"></use><g><use xlink:href="#bmumPnRoQ" opacity="1" fill-opacity="0" stroke="#000000" stroke-width="1" stroke-opacity="0"></use></g></g><g><use xlink:href="#a11iR8NKB1" opacity="1" fill="#000000" fill-opacity="0"></use><g><use xlink:href="#a11iR8NKB1" opacity="1" fill-opacity="0" stroke="#000000" stroke-width="1" stroke-opacity="0"></use></g></g><g><use xlink:href="#e1NmrJSUU" opacity="1" fill="#000000" fill-opacity="1"></use><g><use xlink:href="#e1NmrJSUU" opacity="1" fill-opacity="0" stroke="#000000" stroke-width="1" stroke-opacity="0"></use></g></g><g><use xlink:href="#bA7hCcPyg" opacity="1" fill="#000000" fill-opacity="0"></use><g><use xlink:href="#bA7hCcPyg" opacity="1" fill-opacity="0" stroke="#000000" stroke-width="1" stroke-opacity="0"></use></g></g><g><use xlink:href="#a1ivUhHiH" opacity="1" fill="#000000" fill-opacity="1"></use><g><use xlink:href="#a1ivUhHiH" opacity="1" fill-opacity="0" stroke="#000000" stroke-width="1" stroke-opacity="0"></use></g></g><g><use xlink:href="#iaiHxbbApw" opacity="1" fill="#000000" fill-opacity="0"></use><g><use xlink:href="#iaiHxbbApw" opacity="1" fill-opacity="0" stroke="#000000" stroke-width="1" stroke-opacity="0"></use></g></g><g><use xlink:href="#dCNk7es5w" opacity="1" fill="#000000" fill-opacity="1"></use><g><use xlink:href="#dCNk7es5w" opacity="1" fill-opacity="0" stroke="#000000" stroke-width="1" stroke-opacity="0"></use></g></g><g><use xlink:href="#g2Bvl7gNat" opacity="1" fill="#000000" fill-opacity="0"></use><g><use xlink:href="#g2Bvl7gNat" opacity="1" fill-opacity="0" stroke="#000000" stroke-width="1" stroke-opacity="0"></use></g></g></g></g></g></svg>