<svg xmlns="http://www.w3.org/2000/svg" xmlns:xlink="http://www.w3.org/1999/xlink" preserveAspectRatio="xMidYMid meet" viewBox="0 0 359.88 209" width="359.88" height="209"><defs><path d="M85.77 37.4C91.52 42.15 99.26 36.9 102.51 38.65C105.76 40.4 101.76 49.65 107.26 52.4C112.76 55.15 120.76 47.9 126.25 50.9C131.75 53.9 125.75 63.15 131.5 66.89C137.25 70.64 145.25 61.4 149 64.4C152.74 67.39 150.75 71.89 150.5 75.39C150.33 77.72 151.25 79.89 153.24 81.89C154.4 79.39 155.4 77.22 156.24 75.39C151.99 71.39 156.99 62.9 151.25 58.9C145.5 54.9 139.5 63.65 134.5 61.15C129.5 58.65 134.25 48.4 129.25 44.4C124.25 40.4 115.01 46.65 109.26 43.65C103.51 40.65 109.51 31.91 105.26 28.91C101.01 25.91 92.02 33.66 89.77 31.66C87.52 29.66 89.02 22.41 88.77 20.16C88.6 18.66 87.27 16.91 84.77 14.91C84.1 17.74 83.27 19.74 82.27 20.91C85.27 24.16 80.02 32.66 85.77 37.4Z" id="a6RYva3szk"></path><path d="M85.77 37.4C91.52 42.15 99.26 36.9 102.51 38.65C105.76 40.4 101.76 49.65 107.26 52.4C112.76 55.15 120.76 47.9 126.25 50.9C131.75 53.9 125.75 63.15 131.5 66.89C137.25 70.64 145.25 61.4 149 64.4C152.74 67.39 150.75 71.89 150.5 75.39C150.33 77.72 151.25 79.89 153.24 81.89C154.4 79.39 155.4 77.22 156.24 75.39C151.99 71.39 156.99 62.9 151.25 58.9C145.5 54.9 139.5 63.65 134.5 61.15C129.5 58.65 134.25 48.4 129.25 44.4C124.25 40.4 115.01 46.65 109.26 43.65C103.51 40.65 109.51 31.91 105.26 28.91C101.01 25.91 92.02 33.66 89.77 31.66C87.52 29.66 89.02 22.41 88.77 20.16C88.6 18.66 87.27 16.91 84.77 14.91C84.1 17.74 83.27 19.74 82.27 20.91C85.27 24.16 80.02 32.66 85.77 37.4Z" id="apAG0OLeX"></path><path d="M214.85 73.97C194.44 73.97 177.87 57.4 177.87 36.98C177.87 16.57 194.44 0 214.85 0C235.28 0 251.84 16.57 251.84 36.98C251.84 57.4 235.28 73.97 214.85 73.97Z" id="dignrDInS"></path><path d="M271.97 139.5C259.56 139.5 249.48 129.42 249.48 117.01C249.48 104.59 259.56 94.52 271.97 94.52C284.39 94.52 294.47 104.59 294.47 117.01C294.47 129.42 284.39 139.5 271.97 139.5Z" id="aibTjOTKe"></path><path d="M91.53 209C80.49 209 71.53 200.03 71.53 189C71.53 177.97 80.49 169.01 91.53 169.01C102.55 169.01 111.52 177.97 111.52 189C111.52 200.03 102.55 209 91.53 209Z" id="aBOT2UOR7"></path><path d="M211.02 189C200.81 189 192.52 180.51 192.52 170.04C192.52 159.57 200.81 151.08 211.02 151.08C221.22 151.08 229.51 159.57 229.51 170.04C229.51 180.51 221.22 189 211.02 189Z" id="c1QX5bCCx3"></path><path d="M104.52 56.26C97.34 56.26 91.53 50.29 91.53 42.94C91.53 35.59 97.34 29.62 104.52 29.62C111.69 29.62 117.52 35.59 117.52 42.94C117.52 50.29 111.69 56.26 104.52 56.26Z" id="a26SqTKx1F"></path><path d="M141.28 156.52C123.9 156.52 109.79 142.11 109.79 124.35C109.79 106.58 123.9 92.16 141.28 92.16C158.66 92.16 172.77 106.58 172.77 124.35C172.77 142.11 158.66 156.52 141.28 156.52Z" id="a36J5Puo6"></path><path d="M103.1 73.8L101.1 79.57L61.43 65.84L63.42 60.09L103.1 73.8Z" id="a164kEvx65"></path><path d="M359.88 110.01L359.87 117.01L330.89 116.92L330.89 109.92L359.88 110.01Z" id="h8JPoD31H"></path><path d="M351.24 139.09L349.1 144.69L328.75 136.85L330.89 131.25L351.24 139.09Z" id="g13YXxmHXp"></path><path d="M332.43 56.26L334.17 62L264.42 83.39L262.68 77.65L332.43 56.26Z" id="a4mExpZiEt"></path><path d="M172.77 66.25L168.29 70.24L153.83 53.92L158.31 49.93L172.77 66.25Z" id="azN8jNkex"></path><path d="M33.79 96.52L33.72 102.52L11.92 102.2L11.99 96.2L33.79 96.52Z" id="c36tonQuRa"></path><path d="M301.45 154.31L300.5 160.22L245.54 150.17L246.5 144.25L301.45 154.31Z" id="d2972gAZ8S"></path><path d="M28.16 124.35L29.6 130.17L1.44 136.83L0 131L28.16 124.35Z" id="d3uTltE5mV"></path><path d="M157.22 148.74L160.12 154.08L117.07 177.75L114.17 172.41L157.22 148.74Z" id="czy2RwHT0"></path><path d="M273.47 82.88L273.83 82.99L274.1 83.16L274.77 83.75L275.38 84.32L275.94 84.86L276.46 85.38L276.93 85.88L277.36 86.36L277.74 86.82L278.08 87.25L278.37 87.67L278.63 88.07L278.84 88.45L279.02 88.82L279.15 89.16L279.25 89.5L279.31 89.81L279.34 90.12L279.33 90.41L279.29 90.69L279.22 90.95L279.12 91.21L278.99 91.45L278.83 91.69L278.64 91.91L278.42 92.13L278.18 92.34L277.91 92.54L277.62 92.74L277.3 92.93L276.97 93.11L276.61 93.3L276.24 93.47L275.84 93.65L275.43 93.83L275 94L274.56 94.17L274.1 94.35L273.62 94.52L273.14 94.7L272.64 94.88L272.14 95.06L271.16 95.41L270.24 95.76L269.4 96.09L268.62 96.4L267.9 96.7L267.24 96.99L266.64 97.27L266.09 97.53L265.6 97.78L265.16 98.02L264.77 98.24L264.43 98.45L264.14 98.65L263.88 98.84L263.67 99.02L263.5 99.19L263.36 99.34L263.26 99.49L263.2 99.62L263.16 99.74L263.15 99.86L263.17 99.96L263.21 100.05L263.28 100.14L263.37 100.21L263.47 100.28L263.59 100.34L263.73 100.39L263.88 100.43L264.03 100.46L264.2 100.48L264.37 100.5L264.55 100.51L264.72 100.51L264.9 100.5L265.07 100.49L265.24 100.47L265.41 100.44L265.56 100.41L265.7 100.37L266.51 100.14L267.31 99.93L268.11 99.74L268.9 99.56L269.68 99.41L270.46 99.28L271.22 99.18L271.98 99.09L272.72 99.03L273.46 98.99L274.18 98.98L274.89 99L275.58 99.04L276.26 99.1L276.92 99.2L277.57 99.32L278.2 99.47L278.82 99.65L279.41 99.86L279.98 100.1L280.54 100.37L281.07 100.67L281.58 101L282.07 101.37L282.54 101.77L282.98 102.21L283.39 102.68L283.78 103.18L284.14 103.72L284.47 104.3L284.78 104.92L285.06 105.57L285.3 106.26L285.52 107L285.7 107.77L285.85 108.58L285.97 109.43L286.05 110.33L286.1 111.26L286.11 112.24L286.25 112.23L286.39 112.22L286.53 112.21L286.66 112.2L286.8 112.19L286.94 112.18L287.07 112.17L287.21 112.16L287.34 112.15L287.48 112.14L287.61 112.13L287.75 112.12L287.88 112.11L288.02 112.1L288.15 112.09L288.29 112.09L288.42 112.08L288.55 112.07L288.82 112.05L288.95 112.04L289.09 112.03L289.22 112.02L289.35 112.01L289.49 112.01L289.62 112L289.75 111.99L289.88 111.98L290.02 111.97L290.15 111.96L290.28 111.95L290.41 111.94L290.55 111.93L290.68 111.92L290.81 111.91L290.94 111.9L291.08 111.89L291.21 111.88L291.34 111.87L291.47 111.86L291.71 111.84L291.94 111.84L292.16 111.85L292.37 111.88L292.56 111.92L292.74 111.97L292.91 112.03L293.07 112.1L293.22 112.18L293.35 112.27L293.47 112.37L293.58 112.48L293.68 112.59L293.76 112.71L293.83 112.84L293.89 112.97L293.94 113.1L293.97 113.24L293.99 113.38L294 113.52L293.99 113.66L293.97 113.8L293.94 113.94L293.89 114.09L293.83 114.23L293.76 114.36L293.67 114.5L293.57 114.63L293.45 114.75L293.32 114.88L293.18 114.99L293.02 115.1L292.85 115.2L292.66 115.29L292.46 115.38L292.25 115.45L292.02 115.52L291.77 115.57L291.52 115.61L291.24 115.64L291.11 115.66L290.98 115.67L290.84 115.69L290.71 115.71L290.58 115.72L290.45 115.74L290.31 115.76L290.18 115.77L290.04 115.79L289.91 115.8L289.78 115.82L289.64 115.83L289.51 115.84L289.37 115.86L289.24 115.87L289.1 115.89L288.97 115.9L288.83 115.91L288.7 115.93L288.56 115.94L288.43 115.95L288.29 115.96L288.16 115.98L288.02 115.99L287.89 116L287.75 116.01L287.62 116.03L287.48 116.04L287.35 116.05L287.22 116.06L287.08 116.08L286.95 116.09L286.81 116.1L286.68 116.11L286.55 116.12L286.41 116.13L286.28 116.14L286.15 116.16L286.02 116.17L285.88 116.18L285.88 116.26L285.57 118.08L285.15 119.82L284.62 121.48L284 123.07L283.29 124.58L282.49 126L281.62 127.35L280.67 128.62L279.66 129.81L278.58 130.92L277.45 131.95L276.27 132.9L275.05 133.76L273.8 134.55L272.51 135.26L271.2 135.88L269.86 136.42L268.52 136.88L267.17 137.26L265.81 137.55L264.46 137.77L263.13 137.89L261.81 137.94L260.51 137.9L259.24 137.78L258 137.57L256.81 137.28L255.66 136.9L254.57 136.44L253.53 135.9L252.56 135.26L251.66 134.55L250.83 133.74L250.09 132.85L249.43 131.87L248.87 130.81L248.41 129.66L248.06 128.42L247.82 127.09L247.69 125.68L247.7 125.03L247.76 124.4L247.89 123.8L248.08 123.22L248.33 122.66L248.63 122.12L248.99 121.6L249.4 121.1L249.86 120.62L250.38 120.16L250.94 119.72L251.55 119.3L252.2 118.89L252.9 118.51L253.64 118.13L254.42 117.78L255.24 117.44L256.1 117.11L256.99 116.8L257.92 116.5L258.88 116.22L259.87 115.94L260.89 115.69L261.93 115.44L263 115.2L264.1 114.98L265.22 114.76L266.36 114.56L267.52 114.37L268.69 114.18L269.88 114L271.09 113.83L272.31 113.67L273.54 113.52L274.78 113.37L276.03 113.23L277.28 113.09L278.54 112.96L279.8 112.83L281.06 112.71L281.06 111.59L280.98 110.62L280.81 109.78L280.57 109.07L280.25 108.48L279.86 108L279.4 107.63L278.87 107.35L278.29 107.17L277.65 107.06L276.96 107.04L276.21 107.08L275.43 107.18L274.6 107.34L273.73 107.54L272.82 107.78L271.89 108.05L270.93 108.35L269.94 108.66L268.94 108.98L267.91 109.31L266.88 109.63L265.83 109.94L264.78 110.22L263.73 110.48L262.68 110.71L261.64 110.89L260.61 111.03L259.58 111.11L258.58 111.12L257.6 111.07L256.63 110.93L255.7 110.71L254.8 110.4L253.93 109.98L253.1 109.46L252.32 108.82L251.57 108.06L250.88 107.17L250.25 106.14L249.77 105.18L249.43 104.21L249.2 103.25L249.09 102.3L249.09 101.35L249.2 100.41L249.4 99.48L249.69 98.55L250.07 97.64L250.53 96.75L251.07 95.87L251.68 95L252.35 94.16L253.08 93.33L253.86 92.52L254.69 91.73L255.56 90.97L256.47 90.23L257.41 89.52L258.37 88.84L259.35 88.19L260.34 87.56L261.35 86.97L262.35 86.41L263.35 85.89L264.34 85.4L265.32 84.95L266.28 84.54L267.21 84.17L268.11 83.84L268.97 83.55L269.79 83.31L270.56 83.12L271.27 82.97L271.93 82.87L272.51 82.82L273.03 82.83L273.47 82.88ZM273.67 117.58L270.49 118.07L267.54 118.61L264.88 119.21L262.54 119.87L260.59 120.59L259.05 121.4L257.99 122.29L257.46 123.28L257.49 124.36L258.49 126.37L260.09 128.01L262.16 129.23L264.57 129.96L267.19 130.16L269.91 129.76L272.6 128.7L275.13 126.92L277.38 124.37L279.22 120.99L280.53 116.72L277.03 117.13L273.67 117.58Z" id="dE2iOpT1l"></path><path d="M233.99 92.6C235.42 82.68 251.01 87.81 246.95 89.88C242.71 92.05 240.64 102.32 238.02 107.13C237.11 108.79 234.3 109.31 233.83 109.28C232.85 109.23 232.82 100.67 233.99 92.6Z" id="aCGPcGbVX"></path><path d="M114.22 81.6C112.23 79.39 113.14 75.1 117.98 72.77C120.4 71.57 123.79 70.49 126.05 75.15C129.43 82.1 119 86.81 114.22 81.6Z" id="c1eotIIeXY"></path><path d="M134.5 79.12C132.33 76.7 133.32 72.04 138.59 69.5C141.23 68.2 144.92 67.02 147.38 72.1C151.06 79.66 139.7 84.79 134.5 79.12Z" id="axw61flC"></path><path d="M89.77 117.7C91.84 102.14 88.42 101.26 85.32 104.23C81.26 108.08 78.72 118.1 78.64 127.65C79.04 130.05 79.51 132.38 80.07 134.46C80.55 136.79 73.07 139.19 68.7 135.91C67.19 134.79 66 123.48 66 108.16C66 95.57 67.67 86.9 69.18 86.5C80.63 83.38 82.46 88.43 79.99 97.89C78.96 101.82 78.32 105.59 78 109.2C80.39 102.54 83.81 97.09 87.7 94.68C98.28 88.03 107.11 91.15 105.44 104.39C102.57 128.05 102.34 131.26 104.88 129.41C108.06 127.17 110.13 131.18 107.19 133.18C95.89 140.8 86.91 139.12 89.77 117.7Z" id="a1sQiJ8Qy7"></path><path d="M135.81 91.43L136.96 91.65L138.05 91.97L139.1 92.39L140.09 92.91L141.02 93.55L141.88 94.3L142.67 95.16L143.38 96.13L143.82 96.9L144.2 97.7L144.49 98.53L144.72 99.39L144.88 100.27L144.97 101.17L144.99 102.1L144.95 103.04L144.84 103.99L144.67 104.96L144.44 105.93L144.15 106.91L143.8 107.89L143.4 108.88L142.94 109.86L142.42 110.84L141.85 111.82L141.23 112.78L140.57 113.73L139.85 114.67L139.09 115.59L138.28 116.49L137.43 117.37L136.54 118.23L135.6 119.05L134.63 119.85L133.62 120.61L132.57 121.34L131.49 122.03L130.37 122.68L129.22 123.29L128.04 123.85L126.84 124.36L126.79 124.38L126.75 124.39L126.68 124.42L126.62 124.44L126.47 124.49L126.42 124.5L126.34 124.53L126.32 124.54L126.27 124.55L126.23 124.57L126.19 124.58L126.16 124.59L126.12 124.6L126.38 125.26L126.67 125.9L126.97 126.51L127.29 127.1L127.63 127.65L127.99 128.18L128.37 128.69L128.76 129.16L129.17 129.6L129.59 130L130.03 130.38L130.48 130.72L130.94 131.02L131.41 131.29L131.9 131.52L132.4 131.71L132.91 131.86L133.42 131.97L133.95 132.04L134.48 132.07L135.03 132.05L135.57 131.98L136.13 131.87L136.69 131.71L137.25 131.51L137.82 131.25L138.4 130.94L138.97 130.58L139.55 130.17L140.13 129.71L140.71 129.18L141.29 128.61L141.86 127.97L142.14 127.68L142.4 127.41L142.66 127.17L142.92 126.96L143.16 126.77L143.4 126.6L143.63 126.46L143.85 126.34L144.06 126.25L144.26 126.18L144.45 126.13L144.63 126.11L144.79 126.1L144.94 126.12L145.08 126.17L145.2 126.23L145.31 126.31L145.4 126.42L145.47 126.54L145.53 126.69L145.57 126.85L145.59 127.03L145.59 127.24L145.57 127.46L145.53 127.7L145.47 127.95L145.39 128.23L145.29 128.52L145.16 128.83L145.01 129.15L144.84 129.49L144.64 129.85L144.41 130.22L144.12 130.66L143.79 131.09L143.45 131.51L143.07 131.91L142.68 132.3L142.26 132.67L141.82 133.03L141.36 133.37L140.88 133.7L140.38 134.01L139.86 134.31L139.32 134.59L138.77 134.86L138.2 135.11L137.62 135.34L137.02 135.56L136.41 135.76L135.79 135.95L135.15 136.12L134.51 136.27L133.85 136.41L133.19 136.53L132.52 136.63L131.84 136.72L131.15 136.79L130.46 136.84L129.77 136.88L129.07 136.89L128.37 136.89L127.67 136.88L126.97 136.84L126.26 136.79L125.56 136.72L124.57 136.58L123.6 136.4L122.66 136.18L121.74 135.9L120.85 135.59L119.98 135.22L119.15 134.82L118.34 134.37L117.57 133.87L116.82 133.34L116.11 132.76L115.43 132.15L114.78 131.49L114.17 130.8L113.59 130.06L113.06 129.29L112.55 128.48L112.09 127.63L111.66 126.74L111.28 125.82L110.93 124.87L110.63 123.88L110.37 122.85L110.15 121.8L109.98 120.71L109.85 119.58L109.77 118.43L109.74 117.25L109.75 116.03L109.81 114.79L109.92 113.52L110.08 112.22L110.29 110.89L110.61 109.46L111.03 108.06L111.55 106.69L112.16 105.37L112.85 104.09L113.63 102.85L114.48 101.66L115.4 100.53L116.39 99.44L117.43 98.41L118.52 97.44L119.65 96.53L120.83 95.68L122.04 94.9L123.27 94.19L124.53 93.55L125.8 92.98L127.08 92.49L128.37 92.08L129.65 91.75L130.92 91.51L132.18 91.35L133.42 91.28L134.63 91.31L135.81 91.43ZM130.12 96.97L129.08 98.4L128.07 100.38L127.12 102.91L126.26 105.98L125.52 109.58L124.93 113.7L124.88 114.32L124.85 114.94L124.83 115.55L124.82 116.16L124.82 116.76L124.83 117.35L124.85 117.93L124.89 118.51L124.94 119.08L125.01 119.63L127.35 117.66L129.35 115.35L131.03 112.81L132.39 110.14L133.42 107.44L134.13 104.81L134.52 102.34L134.6 100.14L134.37 98.31L133.83 96.94L133.03 96.08L132.12 95.8L131.14 96.1L130.12 96.97Z" id="a4gVRrH6TE"></path><path d="M175.99 116.61C172.57 117.65 168.6 116.69 168.6 112.76C168.6 111.31 169.87 107.94 173.76 106.02C173.52 103.29 171.78 102.57 170.5 103.61C165.73 107.3 159.93 121.09 161.44 131.04C161.52 131.28 161.52 131.52 161.52 131.76C161.76 132.65 162 133.53 162.31 134.41C163.11 136.66 155.32 139.14 150.94 135.77C149.43 134.65 148.64 125.83 148.64 110.51C148.64 97.92 151.42 86.77 152.93 86.37C162.08 83.88 167.4 88.21 164.54 96.71C162.87 101.53 161.36 106.42 160.49 111.55C163.98 102.01 169.79 93.18 174.48 90.86C182.83 86.69 188.87 92.22 187.12 102.01C187.04 102.17 186.97 102.57 186.97 102.65C186.89 103.45 186.16 105.94 186.41 105.13C185.67 107.48 185.14 108.38 184.5 109.39C182.22 112.97 178.93 115.64 175.99 116.61Z" id="b2Veyawbp5"></path><path d="M241.28 45.29L242.16 45.44L243.04 45.66L243.91 45.94L244.85 46.32L245.73 46.75L246.55 47.24L247.32 47.78L248.03 48.37L248.68 49.01L249.27 49.7L249.8 50.42L250.26 51.19L250.67 51.99L251.01 52.83L251.28 53.71L251.48 54.62L251.62 55.55L251.69 56.51L251.69 57.5L251.61 58.51L251.47 59.53L251.25 60.58L250.95 61.64L250.58 62.71L250.13 63.8L249.6 64.89L248.99 65.99L248.3 67.09L247.53 68.2L246.67 69.3L245.74 70.4L244.71 71.49L243.6 72.58L242.4 73.66L241.11 74.72L239.73 75.77L238.26 76.8L236.7 77.82L235.04 78.81L233.29 79.78L231.44 80.72L229.49 81.63L227.45 82.51L227.4 82.76L227.36 83.01L227.31 83.26L227.26 83.51L227.22 83.76L227.17 84.02L227.12 84.27L227.08 84.53L227.03 84.78L226.99 85.04L226.95 85.3L226.9 85.56L226.86 85.82L226.82 86.08L226.77 86.34L226.73 86.61L226.69 86.87L226.65 87.14L226.61 87.41L226.57 87.68L226.53 87.95L226.49 88.22L226.45 88.49L226.41 88.76L226.37 89.04L226.33 89.31L226.3 89.59L226.26 89.86L226.22 90.14L226.19 90.42L226.15 90.7L226.12 90.98L226.08 91.26L226.05 91.55L226.02 91.83L225.98 92.11L225.95 92.4L225.92 92.69L225.89 92.97L225.86 93.26L225.75 94.34L225.65 95.4L225.56 96.46L225.47 97.52L225.39 98.56L225.32 99.6L225.26 100.62L225.2 101.64L225.15 102.65L225.11 103.64L225.08 104.63L225.05 105.6L225.03 106.56L225.02 107.51L225.01 108.45L225.01 109.37L225.02 110.28L225.03 111.17L225.05 112.05L225.08 112.91L225.11 113.76L225.14 114.59L225.19 115.4L225.24 116.19L225.29 116.97L225.35 117.73L225.42 118.46L225.49 119.18L225.57 119.88L225.65 120.56L225.74 121.21L225.83 121.84L225.92 122.46L226.03 123.04L226.13 123.61L226.24 124.15L226.36 124.67L226.48 125.16L226.61 125.62L226.73 126.06L226.82 126.29L226.91 126.53L227.01 126.76L227.13 127L227.25 127.23L227.38 127.47L227.52 127.7L227.67 127.94L227.83 128.16L228 128.39L228.17 128.61L228.36 128.82L228.55 129.03L228.74 129.23L228.95 129.42L229.16 129.6L229.37 129.77L229.59 129.93L229.82 130.08L230.06 130.22L230.29 130.34L230.54 130.45L230.78 130.54L231.03 130.61L231.29 130.67L231.55 130.72L231.81 130.74L232.08 130.74L232.35 130.73L232.62 130.69L232.89 130.63L233.17 130.55L233.44 130.44L233.72 130.31L234 130.15L234.28 129.97L234.56 129.76L234.84 129.52L235.12 129.25L235.4 128.95L235.71 128.62L236.01 128.32L236.32 128.04L236.62 127.79L236.92 127.57L237.22 127.37L237.51 127.19L237.8 127.04L238.08 126.91L238.36 126.81L238.63 126.72L238.88 126.66L239.13 126.63L239.37 126.61L239.59 126.62L239.8 126.64L240 126.69L240.18 126.76L240.35 126.84L240.5 126.95L240.63 127.07L240.75 127.21L240.84 127.37L240.92 127.55L240.97 127.74L241 127.95L241 128.18L240.99 128.42L240.94 128.68L240.87 128.95L240.77 129.24L240.65 129.54L240.49 129.85L240.31 130.18L240.09 130.52L239.84 130.87L239.56 131.24L239.24 131.61L238.89 132L238.5 132.4L238.25 132.64L237.98 132.88L237.71 133.12L237.42 133.35L237.12 133.58L236.82 133.8L236.5 134.02L236.18 134.23L235.85 134.44L235.51 134.64L235.16 134.84L234.8 135.03L234.44 135.21L234.07 135.39L233.69 135.56L233.31 135.73L232.92 135.88L232.52 136.04L232.12 136.18L231.71 136.32L231.29 136.45L230.87 136.57L230.45 136.69L230.02 136.79L229.59 136.89L229.15 136.98L228.71 137.07L228.27 137.14L227.82 137.2L227.37 137.26L226.91 137.31L226.46 137.34L226 137.37L225.54 137.39L225.08 137.4L224.62 137.4L224.15 137.39L223.69 137.37L223.22 137.33L222.76 137.29L222.43 137.24L222.1 137.19L221.79 137.13L221.48 137.05L221.17 136.97L220.87 136.88L220.58 136.79L220.29 136.68L220.01 136.57L219.74 136.45L219.47 136.32L219.21 136.18L218.95 136.03L218.7 135.88L218.45 135.72L218.21 135.55L217.98 135.38L217.75 135.19L217.53 135L217.31 134.81L217.1 134.6L216.89 134.39L216.69 134.17L216.5 133.94L216.3 133.71L216.12 133.47L215.94 133.22L215.76 132.97L215.59 132.71L215.42 132.44L215.26 132.17L215.1 131.89L214.95 131.61L214.8 131.31L214.66 131.02L214.52 130.71L214.39 130.4L214.26 130.08L214.13 129.76L214.01 129.43L213.96 129.53L213.92 129.63L213.87 129.72L213.82 129.81L213.77 129.91L213.72 130L213.67 130.09L213.62 130.18L213.57 130.27L213.52 130.36L213.47 130.45L213.42 130.54L213.36 130.63L213.31 130.72L213.26 130.8L213.21 130.89L213.15 130.98L213.1 131.06L213.04 131.14L212.99 131.23L212.93 131.31L212.88 131.39L212.82 131.47L212.76 131.55L212.71 131.63L212.65 131.71L212.59 131.79L212.53 131.86L212.47 131.94L212.41 132.02L212.35 132.09L212.29 132.16L212.23 132.24L212.17 132.31L212.11 132.38L212.04 132.45L211.98 132.52L211.92 132.59L211.85 132.65L211.79 132.72L211.56 132.95L211.33 133.18L211.1 133.4L210.86 133.62L210.62 133.83L210.38 134.03L210.14 134.23L209.89 134.43L209.65 134.61L209.39 134.8L209.14 134.97L208.88 135.14L208.62 135.31L208.36 135.47L208.1 135.62L207.83 135.76L207.56 135.9L207.28 136.04L207.01 136.16L206.73 136.28L206.44 136.39L206.16 136.5L205.87 136.6L205.57 136.69L205.28 136.77L204.98 136.85L204.67 136.92L204.37 136.98L204.06 137.04L203.74 137.09L203.43 137.13L203.11 137.16L202.78 137.18L202.46 137.2L202.13 137.21L201.79 137.21L201.45 137.2L201.11 137.19L200.76 137.16L200.41 137.13L199.71 137.04L199.02 136.91L198.35 136.74L197.7 136.55L197.06 136.32L196.43 136.06L195.83 135.76L195.24 135.44L194.67 135.08L194.11 134.7L193.58 134.28L193.06 133.84L192.57 133.36L192.09 132.86L191.64 132.33L191.2 131.77L190.79 131.18L190.4 130.57L190.03 129.93L189.68 129.26L189.35 128.57L189.05 127.86L188.77 127.12L188.52 126.35L188.28 125.56L188.08 124.75L187.9 123.92L187.74 123.06L187.61 122.19L187.51 121.29L187.43 120.37L187.38 119.43L187.36 118.47L187.37 117.49L187.4 116.49L187.46 115.47L187.55 114.44L187.68 113.38L187.83 112.31L188.01 111.23L188.24 110.09L188.5 108.99L188.81 107.93L189.14 106.9L189.52 105.91L189.92 104.96L190.35 104.04L190.82 103.16L191.31 102.32L191.82 101.51L192.37 100.74L192.93 100.01L193.52 99.31L194.12 98.65L194.75 98.03L195.39 97.44L196.04 96.89L196.71 96.38L197.39 95.9L198.09 95.46L198.79 95.05L199.5 94.69L200.22 94.35L200.94 94.06L201.66 93.8L202.39 93.58L203.11 93.39L203.84 93.25L204.56 93.13L205.27 93.06L205.99 93.02L206.69 93.02L207.38 93.05L208.07 93.12L208.74 93.23L209.4 93.37L210.04 93.55L210.67 93.77L211.28 94.02L211.86 94.31L211.88 94.16L211.89 94.02L211.9 93.87L211.91 93.73L211.92 93.58L211.94 93.44L211.95 93.3L211.96 93.15L211.97 93.01L211.98 92.86L212 92.72L212.01 92.57L212.02 92.43L212.03 92.28L212.04 92.14L212.06 91.99L212.07 91.85L212.08 91.7L212.09 91.55L212.1 91.41L212.12 91.26L212.13 91.12L212.14 90.97L212.15 90.82L212.16 90.68L212.18 90.53L212.19 90.38L212.2 90.24L212.21 90.09L212.22 89.94L212.24 89.79L212.25 89.64L212.26 89.5L212.27 89.35L212.28 89.2L212.29 89.05L212.31 88.9L212.32 88.75L212.33 88.6L212.34 88.45L212.35 88.42L212.35 88.39L212.36 88.36L212.36 88.33L212.37 88.3L212.37 88.27L212.38 88.24L212.38 88.21L212.39 88.18L212.39 88.15L212.39 88.12L212.4 88.09L212.4 88.06L212.4 88.03L212.41 88L212.41 87.97L212.41 87.94L212.42 87.91L212.43 87.79L212.43 87.76L212.43 87.73L212.44 87.7L212.44 87.67L212.44 87.64L212.45 87.61L212.45 87.58L212.45 87.55L212.46 87.52L212.46 87.49L212.46 87.46L212.47 87.43L212.47 87.4L212.48 87.37L212.48 87.34L212.49 87.31L212.49 87.28L212.5 87.25L212.33 87.28L212.16 87.32L212 87.36L211.83 87.39L211.66 87.43L211.49 87.46L211.32 87.5L211.15 87.54L210.97 87.57L210.8 87.61L210.63 87.64L210.46 87.68L210.28 87.71L210.11 87.75L209.93 87.78L209.76 87.82L209.58 87.86L209.4 87.89L209.23 87.92L209.05 87.96L208.87 87.99L208.7 88.03L208.52 88.06L208.34 88.1L208.16 88.13L207.98 88.16L207.8 88.2L207.62 88.23L207.44 88.26L207.26 88.3L207.07 88.33L206.89 88.36L206.71 88.39L206.53 88.43L206.34 88.46L206.16 88.49L205.98 88.52L205.79 88.55L205.61 88.58L205.42 88.61L202.94 88.98L200.63 89.22L198.48 89.35L196.49 89.37L194.66 89.28L192.97 89.09L191.43 88.8L190.03 88.43L188.76 87.97L187.62 87.43L186.61 86.81L185.73 86.13L184.95 85.38L184.29 84.56L183.74 83.7L183.29 82.78L182.94 81.82L182.68 80.82L182.52 79.79L182.43 78.73L182.43 77.64L182.5 76.53L182.64 75.41L182.85 74.28L183.12 73.14L183.44 72.01L183.82 70.88L184.24 69.77L184.71 68.67L185.22 67.59L185.76 66.53L186.32 65.51L186.92 64.53L187.53 63.59L188.15 62.69L188.79 61.85L189.43 61.06L190.08 60.34L190.72 59.68L191.35 59.1L192.04 58.51L192.71 57.97L193.34 57.48L193.94 57.04L194.51 56.64L195.05 56.28L195.57 55.97L196.05 55.69L196.51 55.46L196.94 55.26L197.34 55.1L197.71 54.97L198.06 54.87L198.38 54.8L198.67 54.76L198.94 54.75L199.19 54.76L199.41 54.8L199.61 54.86L199.78 54.93L199.93 55.03L200.05 55.15L200.16 55.28L200.24 55.42L200.3 55.58L200.34 55.75L200.36 55.92L200.36 56.11L200.34 56.3L200.3 56.49L200.24 56.69L200.16 56.88L200.06 57.08L199.94 57.27L199.81 57.46L199.66 57.65L199.5 57.82L199.31 57.99L199.12 58.15L198.9 58.29L198.52 58.58L198.14 58.91L197.78 59.31L197.43 59.75L197.1 60.24L196.79 60.77L196.5 61.34L196.22 61.95L195.97 62.59L195.74 63.26L195.54 63.96L195.36 64.68L195.21 65.42L195.09 66.18L195 66.96L194.94 67.74L194.91 68.53L194.92 69.32L194.96 70.11L195.04 70.91L195.15 71.69L195.31 72.46L195.5 73.23L195.74 73.97L196.02 74.7L196.35 75.4L196.72 76.08L197.14 76.72L197.61 77.34L198.13 77.92L198.7 78.46L199.33 78.95L200 79.4L200.74 79.81L201.53 80.15L202.38 80.45L203.28 80.68L204.25 80.85L205.28 80.96L206.38 80.99L206.56 80.99L206.75 80.99L206.93 80.99L207.11 80.99L207.3 80.98L207.48 80.98L207.66 80.98L207.84 80.97L208.02 80.97L208.2 80.96L208.38 80.96L208.56 80.95L208.74 80.94L208.92 80.94L209.09 80.93L209.27 80.92L209.45 80.91L209.62 80.9L209.8 80.89L209.98 80.88L210.15 80.87L210.33 80.86L210.5 80.85L210.68 80.84L210.85 80.82L211.03 80.81L211.2 80.8L211.38 80.78L211.55 80.77L211.72 80.75L211.9 80.74L212.07 80.72L212.24 80.71L212.42 80.69L212.59 80.68L212.76 80.66L212.94 80.64L213.11 80.63L213.28 80.61L213.46 80.59L213.82 78.65L214.23 76.77L214.67 74.94L215.14 73.15L215.64 71.42L216.17 69.74L216.73 68.12L217.32 66.55L217.93 65.03L218.57 63.56L219.24 62.15L219.92 60.79L220.63 59.48L221.36 58.23L222.11 57.04L222.88 55.9L223.67 54.81L224.47 53.78L225.29 52.81L226.12 51.9L226.96 51.04L227.82 50.24L228.69 49.49L229.56 48.81L230.45 48.18L231.34 47.61L232.23 47.1L233.14 46.64L234.04 46.25L234.95 45.92L235.86 45.65L236.77 45.43L237.68 45.28L238.58 45.19L239.49 45.16L240.38 45.19L241.28 45.29ZM207.72 98.96L206.78 99.66L205.88 100.58L205.04 101.7L204.24 103.01L203.51 104.5L202.85 106.15L202.26 107.94L201.76 109.86L201.36 111.9L201.05 114.04L200.86 116.51L200.85 118.8L201.01 120.91L201.32 122.82L201.75 124.53L202.29 126.02L202.91 127.3L203.6 128.35L204.34 129.16L205.1 129.73L205.88 130.05L206.64 130.12L207.37 129.91L208.05 129.43L208.53 128.86L208.97 128.16L209.38 127.34L209.76 126.44L210.1 125.46L210.42 124.45L210.7 123.41L210.96 122.37L211.18 121.35L211.37 120.37L211.54 119.46L211.67 118.63L211.78 117.91L211.86 117.32L211.8 116.23L211.75 115.12L211.7 113.99L211.66 112.85L211.63 111.69L211.61 110.51L211.6 109.32L211.59 108.12L211.58 106.91L211.58 105.69L211.59 104.46L211.6 103.22L211.61 101.97L211.63 100.72L211.63 100.56L211.63 100.41L211.64 100.26L211.64 100.1L211.65 99.95L211.66 99.8L211.67 99.65L211.68 99.5L211.68 99.35L211.69 99.2L211.7 99.06L211.7 98.91L211.71 98.77L211.71 98.63L210.69 98.31L209.68 98.27L208.68 98.49L207.72 98.96ZM241.27 55.25L239.56 56.39L237.75 58.1L235.89 60.4L234.04 63.33L232.23 66.92L230.53 71.19L228.96 76.18L232.47 74.3L235.57 72.24L238.28 70.07L240.6 67.85L242.53 65.63L244.07 63.47L245.24 61.44L246.03 59.59L246.46 57.98L246.52 56.67L246.22 55.73L245.36 54.91L244.22 54.54L242.84 54.64L241.27 55.25Z" id="b7h4BCsAz"></path></defs><g><g><g><g><g><use xlink:href="#a6RYva3szk" opacity="1" fill="#f23939" fill-opacity="1"></use><g><use xlink:href="#a6RYva3szk" opacity="1" fill-opacity="0" stroke="#000000" stroke-width="1" stroke-opacity="0"></use></g></g><g><use xlink:href="#apAG0OLeX" opacity="1" fill="#000000" fill-opacity="0"></use><g><use xlink:href="#apAG0OLeX" opacity="1" fill-opacity="0" stroke="#000000" stroke-width="0" stroke-opacity="1"></use></g></g><g><use xlink:href="#dignrDInS" opacity="1" fill="#f23939" fill-opacity="1"></use><g><use xlink:href="#dignrDInS" opacity="1" fill-opacity="0" stroke="#000000" stroke-width="1" stroke-opacity="0"></use></g></g><g><use xlink:href="#aibTjOTKe" opacity="1" fill="#08c27e" fill-opacity="1"></use><g><use xlink:href="#aibTjOTKe" opacity="1" fill-opacity="0" stroke="#000000" stroke-width="1" stroke-opacity="0"></use></g></g><g><use xlink:href="#aBOT2UOR7" opacity="1" fill="#08c27e" fill-opacity="1"></use><g><use xlink:href="#aBOT2UOR7" opacity="1" fill-opacity="0" stroke="#000000" stroke-width="1" stroke-opacity="0"></use></g></g><g><use xlink:href="#c1QX5bCCx3" opacity="1" fill="#087cc2" fill-opacity="1"></use><g><use xlink:href="#c1QX5bCCx3" opacity="1" fill-opacity="0" stroke="#000000" stroke-width="1" stroke-opacity="0"></use></g></g><g><use xlink:href="#a26SqTKx1F" opacity="1" fill="#087cc2" fill-opacity="1"></use><g><use xlink:href="#a26SqTKx1F" opacity="1" fill-opacity="0" stroke="#000000" stroke-width="1" stroke-opacity="0"></use></g></g><g><use xlink:href="#a36J5Puo6" opacity="1" fill="#e7ca00" fill-opacity="1"></use><g><use xlink:href="#a36J5Puo6" opacity="1" fill-opacity="0" stroke="#000000" stroke-width="1" stroke-opacity="0"></use></g></g><g><use xlink:href="#a164kEvx65" opacity="1" fill="#e7ca00" fill-opacity="1"></use><g><use xlink:href="#a164kEvx65" opacity="1" fill-opacity="0" stroke="#000000" stroke-width="1" stroke-opacity="0"></use></g></g><g><use xlink:href="#h8JPoD31H" opacity="1" fill="#e7ca00" fill-opacity="1"></use><g><use xlink:href="#h8JPoD31H" opacity="1" fill-opacity="0" stroke="#000000" stroke-width="1" stroke-opacity="0"></use></g></g><g><use xlink:href="#g13YXxmHXp" opacity="1" fill="#08c27e" fill-opacity="1"></use><g><use xlink:href="#g13YXxmHXp" opacity="1" fill-opacity="0" stroke="#000000" stroke-width="1" stroke-opacity="0"></use></g></g><g><use xlink:href="#a4mExpZiEt" opacity="1" fill="#08c27e" fill-opacity="1"></use><g><use xlink:href="#a4mExpZiEt" opacity="1" fill-opacity="0" stroke="#000000" stroke-width="1" stroke-opacity="0"></use></g></g><g><use xlink:href="#azN8jNkex" opacity="1" fill="#08c27e" fill-opacity="1"></use><g><use xlink:href="#azN8jNkex" opacity="1" fill-opacity="0" stroke="#000000" stroke-width="1" stroke-opacity="0"></use></g></g><g><use xlink:href="#c36tonQuRa" opacity="1" fill="#08c27e" fill-opacity="1"></use><g><use xlink:href="#c36tonQuRa" opacity="1" fill-opacity="0" stroke="#000000" stroke-width="1" stroke-opacity="0"></use></g></g><g><use xlink:href="#d2972gAZ8S" opacity="1" fill="#f23939" fill-opacity="1"></use><g><use xlink:href="#d2972gAZ8S" opacity="1" fill-opacity="0" stroke="#000000" stroke-width="1" stroke-opacity="0"></use></g></g><g><use xlink:href="#d3uTltE5mV" opacity="1" fill="#f23939" fill-opacity="1"></use><g><use xlink:href="#d3uTltE5mV" opacity="1" fill-opacity="0" stroke="#000000" stroke-width="1" stroke-opacity="0"></use></g></g><g><use xlink:href="#czy2RwHT0" opacity="1" fill="#e7ca00" fill-opacity="1"></use><g><use xlink:href="#czy2RwHT0" opacity="1" fill-opacity="0" stroke="#000000" stroke-width="1" stroke-opacity="0"></use></g></g></g><g><g><use xlink:href="#dE2iOpT1l" opacity="1" fill="#000000" fill-opacity="1"></use><g><use xlink:href="#dE2iOpT1l" opacity="1" fill-opacity="0" stroke="#000000" stroke-width="1" stroke-opacity="0"></use></g></g><g><use xlink:href="#aCGPcGbVX" opacity="1" fill="#000000" fill-opacity="1"></use><g><use xlink:href="#aCGPcGbVX" opacity="1" fill-opacity="0" stroke="#000000" stroke-width="1" stroke-opacity="0"></use></g></g><g><use xlink:href="#c1eotIIeXY" opacity="1" fill="#000000" fill-opacity="1"></use><g><use xlink:href="#c1eotIIeXY" opacity="1" fill-opacity="0" stroke="#000000" stroke-width="1" stroke-opacity="0"></use></g></g><g><use xlink:href="#axw61flC" opacity="1" fill="#000000" fill-opacity="1"></use><g><use xlink:href="#axw61flC" opacity="1" fill-opacity="0" stroke="#000000" stroke-width="1" stroke-opacity="0"></use></g></g><g><use xlink:href="#a1sQiJ8Qy7" opacity="1" fill="#000000" fill-opacity="1"></use><g><use xlink:href="#a1sQiJ8Qy7" opacity="1" fill-opacity="0" stroke="#000000" stroke-width="1" stroke-opacity="0"></use></g></g><g><use xlink:href="#a4gVRrH6TE" opacity="1" fill="#000000" fill-opacity="1"></use><g><use xlink:href="#a4gVRrH6TE" opacity="1" fill-opacity="0" stroke="#000000" stroke-width="1" stroke-opacity="0"></use></g></g><g><use xlink:href="#b2Veyawbp5" opacity="1" fill="#000000" fill-opacity="1"></use><g><use xlink:href="#b2Veyawbp5" opacity="1" fill-opacity="0" stroke="#000000" stroke-width="1" stroke-opacity="0"></use></g></g><g><use xlink:href="#b7h4BCsAz" opacity="1" fill="#000000" fill-opacity="1"></use><g><use xlink:href="#b7h4BCsAz" opacity="1" fill-opacity="0" stroke="#000000" stroke-width="1" stroke-opacity="0"></use></g></g></g></g></g></g></svg>
